solid OpenSCAD_Model
  facet normal -1 0 0
    outer loop
      vertex 0 9.005 8
      vertex 0 20 3
      vertex 0 20 0
    endloop
  endfacet
  facet normal -1 0 0
    outer loop
      vertex 0 20 3
      vertex 0 9.005 8
      vertex 0 9.60769 9
    endloop
  endfacet
  facet normal -1 0 0
    outer loop
      vertex 0 5 0
      vertex 0 9.005 8
      vertex 0 20 0
    endloop
  endfacet
  facet normal -1 -0 0
    outer loop
      vertex 0 9.005 8
      vertex 0 5 0
      vertex 0 5 8
    endloop
  endfacet
  facet normal -1 -0 0
    outer loop
      vertex 0 9.60769 9
      vertex 0 9.005 8
      vertex 0 9.005 9
    endloop
  endfacet
  facet normal -0 0 1
    outer loop
      vertex 0 9.60769 9
      vertex 9 9.005 9
      vertex 9 9.60769 9
    endloop
  endfacet
  facet normal 0 0 1
    outer loop
      vertex 9 9.005 9
      vertex 0 9.60769 9
      vertex 0 9.005 9
    endloop
  endfacet
  facet normal 1 0 0
    outer loop
      vertex 9 9.005 8
      vertex 9 9.60769 9
      vertex 9 9.005 9
    endloop
  endfacet
  facet normal 1 0 0
    outer loop
      vertex 9 9 3
      vertex 9 9.60769 9
      vertex 9 9.005 8
    endloop
  endfacet
  facet normal 1 0 0
    outer loop
      vertex 9 9.60769 9
      vertex 9 9 3
      vertex 9 20 3
    endloop
  endfacet
  facet normal 1 -0 0
    outer loop
      vertex 9 5 8
      vertex 9 9 3
      vertex 9 9.005 8
    endloop
  endfacet
  facet normal 1 0 0
    outer loop
      vertex 9 5 0
      vertex 9 9 3
      vertex 9 5 8
    endloop
  endfacet
  facet normal 1 0 0
    outer loop
      vertex 9 9 3
      vertex 9 5 0
      vertex 9 9 0
    endloop
  endfacet
  facet normal 0 1 -0
    outer loop
      vertex 17 20 0
      vertex 15 20 3
      vertex 17 20 3
    endloop
  endfacet
  facet normal 0 1 0
    outer loop
      vertex 15 20 3
      vertex 17 20 0
      vertex 9 20 3
    endloop
  endfacet
  facet normal 0 1 0
    outer loop
      vertex 0 20 0
      vertex 9 20 3
      vertex 17 20 0
    endloop
  endfacet
  facet normal 0 1 0
    outer loop
      vertex 9 20 3
      vertex 0 20 0
      vertex 0 20 3
    endloop
  endfacet
  facet normal 0 0 -1
    outer loop
      vertex 6.2 5 0
      vertex 9 5 0
      vertex 8.97833 4.55892 0
    endloop
  endfacet
  facet normal 0 0 -1
    outer loop
      vertex 8.97833 4.55892 0
      vertex 6.16733 4.66835 0
      vertex 6.2 5 0
    endloop
  endfacet
  facet normal 0 0 -1
    outer loop
      vertex 6.62128 1.03135 0
      vertex 6.07059 4.34944 0
      vertex 6.16733 4.66835 0
    endloop
  endfacet
  facet normal 0 0 -1
    outer loop
      vertex 6.62128 1.03135 0
      vertex 5.9135 4.05553 0
      vertex 6.07059 4.34944 0
    endloop
  endfacet
  facet normal 0 0 -1
    outer loop
      vertex 5.15056 3.4294 0
      vertex 6.22207 0.842542 0
      vertex 5.80628 0.693768 0
    endloop
  endfacet
  facet normal 0 0 -1
    outer loop
      vertex 6.62128 1.03135 0
      vertex 5.70208 3.79792 0
      vertex 5.9135 4.05553 0
    endloop
  endfacet
  facet normal 0 0 -1
    outer loop
      vertex 6.62128 1.03135 0
      vertex 5.44447 3.5865 0
      vertex 5.70208 3.79792 0
    endloop
  endfacet
  facet normal 0 0 -1
    outer loop
      vertex 4.83165 3.33266 0
      vertex 5.80628 0.693768 0
      vertex 5.37791 0.586466 0
    endloop
  endfacet
  facet normal 0 0 -1
    outer loop
      vertex 6.62128 1.03135 0
      vertex 5.15056 3.4294 0
      vertex 5.44447 3.5865 0
    endloop
  endfacet
  facet normal 0 0 -1
    outer loop
      vertex 4.83165 3.33266 0
      vertex 5.37791 0.586466 0
      vertex 4.94108 0.521668 0
    endloop
  endfacet
  facet normal 0 0 -1
    outer loop
      vertex 5.80628 0.693768 0
      vertex 4.83165 3.33266 0
      vertex 5.15056 3.4294 0
    endloop
  endfacet
  facet normal 0 0 -1
    outer loop
      vertex 4.94108 0.521668 0
      vertex 4.5 3.3 0
      vertex 4.83165 3.33266 0
    endloop
  endfacet
  facet normal 0 0 -1
    outer loop
      vertex 4.5 0.5 0
      vertex 4.5 3.3 0
      vertex 4.94108 0.521668 0
    endloop
  endfacet
  facet normal 0 0 -1
    outer loop
      vertex 4.05892 0.521668 0
      vertex 4.5 3.3 0
      vertex 4.5 0.5 0
    endloop
  endfacet
  facet normal -0 0 -1
    outer loop
      vertex 4.5 3.3 0
      vertex 4.05892 0.521668 0
      vertex 4.16835 3.33266 0
    endloop
  endfacet
  facet normal 0 0 -1
    outer loop
      vertex 3.62209 0.586466 0
      vertex 4.16835 3.33266 0
      vertex 4.05892 0.521668 0
    endloop
  endfacet
  facet normal 0 0 -1
    outer loop
      vertex 3.19372 0.693768 0
      vertex 4.16835 3.33266 0
      vertex 3.62209 0.586466 0
    endloop
  endfacet
  facet normal -0 0 -1
    outer loop
      vertex 4.16835 3.33266 0
      vertex 3.19372 0.693768 0
      vertex 3.84944 3.4294 0
    endloop
  endfacet
  facet normal 0 0 -1
    outer loop
      vertex 2.77792 0.842542 0
      vertex 3.84944 3.4294 0
      vertex 3.19372 0.693768 0
    endloop
  endfacet
  facet normal 0 0 -1
    outer loop
      vertex 2.37871 1.03135 0
      vertex 3.84944 3.4294 0
      vertex 2.77792 0.842542 0
    endloop
  endfacet
  facet normal -0 0 -1
    outer loop
      vertex 3.84944 3.4294 0
      vertex 2.37871 1.03135 0
      vertex 3.55553 3.5865 0
    endloop
  endfacet
  facet normal 0 0 -1
    outer loop
      vertex 1.99993 1.25839 0
      vertex 3.55553 3.5865 0
      vertex 2.37871 1.03135 0
    endloop
  endfacet
  facet normal 0 0 -1
    outer loop
      vertex 1.64523 1.52145 0
      vertex 3.55553 3.5865 0
      vertex 1.99993 1.25839 0
    endloop
  endfacet
  facet normal -0 0 -1
    outer loop
      vertex 3.55553 3.5865 0
      vertex 1.64523 1.52145 0
      vertex 3.29792 3.79792 0
    endloop
  endfacet
  facet normal 0 0 -1
    outer loop
      vertex 1.31802 1.81802 0
      vertex 3.29792 3.79792 0
      vertex 1.64523 1.52145 0
    endloop
  endfacet
  facet normal 0 0 -1
    outer loop
      vertex 20.4 14.5 0
      vertex 22.5 14.5 0
      vertex 22.4735 13.9609 0
    endloop
  endfacet
  facet normal 0 0 -1
    outer loop
      vertex 20.3347 13.8367 0
      vertex 22.4735 13.9609 0
      vertex 22.3943 13.427 0
    endloop
  endfacet
  facet normal 0 0 -1
    outer loop
      vertex 22.5 14.5 0
      vertex 20.4 14.5 0
      vertex 22.4735 15.0391 0
    endloop
  endfacet
  facet normal 0 0 -1
    outer loop
      vertex 20.3347 13.8367 0
      vertex 22.3943 13.427 0
      vertex 22.2632 12.9034 0
    endloop
  endfacet
  facet normal 0 0 -1
    outer loop
      vertex 20.3347 15.1633 0
      vertex 22.4735 15.0391 0
      vertex 20.4 14.5 0
    endloop
  endfacet
  facet normal 0 0 -1
    outer loop
      vertex 20.1412 13.1989 0
      vertex 22.2632 12.9034 0
      vertex 22.0813 12.3952 0
    endloop
  endfacet
  facet normal 0 0 -1
    outer loop
      vertex 22.4735 15.0391 0
      vertex 20.3347 15.1633 0
      vertex 22.3943 15.573 0
    endloop
  endfacet
  facet normal 0 0 -1
    outer loop
      vertex 20.1412 13.1989 0
      vertex 22.0813 12.3952 0
      vertex 21.8506 11.9073 0
    endloop
  endfacet
  facet normal -0 0 -1
    outer loop
      vertex 22.3943 15.573 0
      vertex 20.3347 15.1633 0
      vertex 22.2632 16.0966 0
    endloop
  endfacet
  facet normal 0 0 -1
    outer loop
      vertex 19.827 12.6111 0
      vertex 21.8506 11.9073 0
      vertex 21.5731 11.4444 0
    endloop
  endfacet
  facet normal 0 0 -1
    outer loop
      vertex 20.1412 15.8011 0
      vertex 22.2632 16.0966 0
      vertex 20.3347 15.1633 0
    endloop
  endfacet
  facet normal 0 0 -1
    outer loop
      vertex 19.827 12.6111 0
      vertex 21.5731 11.4444 0
      vertex 21.2516 11.0108 0
    endloop
  endfacet
  facet normal -0 0 -1
    outer loop
      vertex 22.2632 16.0966 0
      vertex 20.1412 15.8011 0
      vertex 22.0813 16.6048 0
    endloop
  endfacet
  facet normal 0 0 -1
    outer loop
      vertex 19.4042 12.0958 0
      vertex 21.2516 11.0108 0
      vertex 20.8891 10.6109 0
    endloop
  endfacet
  facet normal -0 0 -1
    outer loop
      vertex 22.0813 16.6048 0
      vertex 20.1412 15.8011 0
      vertex 21.8506 17.0927 0
    endloop
  endfacet
  facet normal 0 0 -1
    outer loop
      vertex 19.4042 12.0958 0
      vertex 20.8891 10.6109 0
      vertex 20.4892 10.2484 0
    endloop
  endfacet
  facet normal 0 0 -1
    outer loop
      vertex 19.827 16.3889 0
      vertex 21.8506 17.0927 0
      vertex 20.1412 15.8011 0
    endloop
  endfacet
  facet normal -0 0 -1
    outer loop
      vertex 21.8506 17.0927 0
      vertex 19.827 16.3889 0
      vertex 21.5731 17.5556 0
    endloop
  endfacet
  facet normal -0 0 -1
    outer loop
      vertex 22.4735 13.9609 0
      vertex 20.3347 13.8367 0
      vertex 20.4 14.5 0
    endloop
  endfacet
  facet normal 0 0 -1
    outer loop
      vertex 22.2632 12.9034 0
      vertex 20.1412 13.1989 0
      vertex 20.3347 13.8367 0
    endloop
  endfacet
  facet normal 0 0 -1
    outer loop
      vertex 18.8889 11.673 0
      vertex 20.4892 10.2484 0
      vertex 20.0556 9.92692 0
    endloop
  endfacet
  facet normal 0 0 -1
    outer loop
      vertex 21.8506 11.9073 0
      vertex 19.827 12.6111 0
      vertex 20.1412 13.1989 0
    endloop
  endfacet
  facet normal 0 0 -1
    outer loop
      vertex 18.8889 11.673 0
      vertex 20.0556 9.92692 0
      vertex 19.5927 9.64943 0
    endloop
  endfacet
  facet normal 0 0 -1
    outer loop
      vertex 21.2516 11.0108 0
      vertex 19.4042 12.0958 0
      vertex 19.827 12.6111 0
    endloop
  endfacet
  facet normal 0 0 -1
    outer loop
      vertex 18.3011 11.3588 0
      vertex 19.5927 9.64943 0
      vertex 19.1048 9.41866 0
    endloop
  endfacet
  facet normal 0 0 -1
    outer loop
      vertex 20.4892 10.2484 0
      vertex 18.8889 11.673 0
      vertex 19.4042 12.0958 0
    endloop
  endfacet
  facet normal 0 0 -1
    outer loop
      vertex 18.3011 11.3588 0
      vertex 19.1048 9.41866 0
      vertex 18.5966 9.23683 0
    endloop
  endfacet
  facet normal 0 0 -1
    outer loop
      vertex 19.5927 9.64943 0
      vertex 18.3011 11.3588 0
      vertex 18.8889 11.673 0
    endloop
  endfacet
  facet normal 0 0 -1
    outer loop
      vertex 17.6633 11.1653 0
      vertex 18.5966 9.23683 0
      vertex 18.073 9.10568 0
    endloop
  endfacet
  facet normal 0 0 -1
    outer loop
      vertex 18.5966 9.23683 0
      vertex 17.6633 11.1653 0
      vertex 18.3011 11.3588 0
    endloop
  endfacet
  facet normal 0 0 -1
    outer loop
      vertex 17.5391 9.02648 0
      vertex 17.6633 11.1653 0
      vertex 18.073 9.10568 0
    endloop
  endfacet
  facet normal 0 0 -1
    outer loop
      vertex 17 11.1 0
      vertex 17.5391 9.02648 0
      vertex 17 9 0
    endloop
  endfacet
  facet normal 0 0 -1
    outer loop
      vertex 17.5391 9.02648 0
      vertex 17 11.1 0
      vertex 17.6633 11.1653 0
    endloop
  endfacet
  facet normal 0 0 -1
    outer loop
      vertex 17 9 0
      vertex 16.3367 11.1653 0
      vertex 17 11.1 0
    endloop
  endfacet
  facet normal 0 0 -1
    outer loop
      vertex 17 9 0
      vertex 15.6989 11.3588 0
      vertex 16.3367 11.1653 0
    endloop
  endfacet
  facet normal 0 0 -1
    outer loop
      vertex 17 9 0
      vertex 15.1111 11.673 0
      vertex 15.6989 11.3588 0
    endloop
  endfacet
  facet normal 0 0 -1
    outer loop
      vertex 9 9 0
      vertex 15.1111 11.673 0
      vertex 17 9 0
    endloop
  endfacet
  facet normal -0 0 -1
    outer loop
      vertex 15.1111 11.673 0
      vertex 9 9 0
      vertex 14.5958 12.0958 0
    endloop
  endfacet
  facet normal -0 0 -1
    outer loop
      vertex 13.6653 13.8367 0
      vertex 9 9 0
      vertex 13.6 14.5 0
    endloop
  endfacet
  facet normal -0 0 -1
    outer loop
      vertex 13.8588 13.1989 0
      vertex 9 9 0
      vertex 13.6653 13.8367 0
    endloop
  endfacet
  facet normal -0 0 -1
    outer loop
      vertex 14.173 12.6111 0
      vertex 9 9 0
      vertex 13.8588 13.1989 0
    endloop
  endfacet
  facet normal -0 0 -1
    outer loop
      vertex 14.5958 12.0958 0
      vertex 9 9 0
      vertex 14.173 12.6111 0
    endloop
  endfacet
  facet normal -0 0 -1
    outer loop
      vertex 21.5731 17.5556 0
      vertex 19.827 16.3889 0
      vertex 21.2516 17.9892 0
    endloop
  endfacet
  facet normal 0 0 -1
    outer loop
      vertex 19.4042 16.9042 0
      vertex 21.2516 17.9892 0
      vertex 19.827 16.3889 0
    endloop
  endfacet
  facet normal -0 0 -1
    outer loop
      vertex 21.2516 17.9892 0
      vertex 19.4042 16.9042 0
      vertex 20.8891 18.3891 0
    endloop
  endfacet
  facet normal -0 0 -1
    outer loop
      vertex 20.8891 18.3891 0
      vertex 19.4042 16.9042 0
      vertex 20.4892 18.7516 0
    endloop
  endfacet
  facet normal 0 0 -1
    outer loop
      vertex 18.8889 17.327 0
      vertex 20.4892 18.7516 0
      vertex 19.4042 16.9042 0
    endloop
  endfacet
  facet normal -0 0 -1
    outer loop
      vertex 20.4892 18.7516 0
      vertex 18.8889 17.327 0
      vertex 20.0556 19.0731 0
    endloop
  endfacet
  facet normal -0 0 -1
    outer loop
      vertex 20.0556 19.0731 0
      vertex 18.8889 17.327 0
      vertex 19.5927 19.3506 0
    endloop
  endfacet
  facet normal 0 0 -1
    outer loop
      vertex 18.3011 17.6412 0
      vertex 19.5927 19.3506 0
      vertex 18.8889 17.327 0
    endloop
  endfacet
  facet normal -0 0 -1
    outer loop
      vertex 19.5927 19.3506 0
      vertex 18.3011 17.6412 0
      vertex 19.1048 19.5813 0
    endloop
  endfacet
  facet normal -0 0 -1
    outer loop
      vertex 19.1048 19.5813 0
      vertex 18.3011 17.6412 0
      vertex 18.5966 19.7632 0
    endloop
  endfacet
  facet normal 0 0 -1
    outer loop
      vertex 17.6633 17.8347 0
      vertex 18.5966 19.7632 0
      vertex 18.3011 17.6412 0
    endloop
  endfacet
  facet normal -0 0 -1
    outer loop
      vertex 18.5966 19.7632 0
      vertex 17.6633 17.8347 0
      vertex 18.073 19.8943 0
    endloop
  endfacet
  facet normal 0 0 -1
    outer loop
      vertex 17.6633 17.8347 0
      vertex 17.5391 19.9735 0
      vertex 18.073 19.8943 0
    endloop
  endfacet
  facet normal 0 0 -1
    outer loop
      vertex 17 17.9 0
      vertex 17.5391 19.9735 0
      vertex 17.6633 17.8347 0
    endloop
  endfacet
  facet normal 0 0 -1
    outer loop
      vertex 17 17.9 0
      vertex 17 20 0
      vertex 17.5391 19.9735 0
    endloop
  endfacet
  facet normal 0 0 -1
    outer loop
      vertex 16.3367 17.8347 0
      vertex 17 20 0
      vertex 17 17.9 0
    endloop
  endfacet
  facet normal 0 0 -1
    outer loop
      vertex 15.6989 17.6412 0
      vertex 17 20 0
      vertex 16.3367 17.8347 0
    endloop
  endfacet
  facet normal 0 0 -1
    outer loop
      vertex 15.1111 17.327 0
      vertex 17 20 0
      vertex 15.6989 17.6412 0
    endloop
  endfacet
  facet normal 0 0 -1
    outer loop
      vertex 14.5958 16.9042 0
      vertex 17 20 0
      vertex 15.1111 17.327 0
    endloop
  endfacet
  facet normal 0 0 -1
    outer loop
      vertex 0 20 0
      vertex 14.5958 16.9042 0
      vertex 14.173 16.3889 0
    endloop
  endfacet
  facet normal 0 0 -1
    outer loop
      vertex 9 9 0
      vertex 13.6653 15.1633 0
      vertex 13.6 14.5 0
    endloop
  endfacet
  facet normal 0 0 -1
    outer loop
      vertex 0 20 0
      vertex 13.6653 15.1633 0
      vertex 9 9 0
    endloop
  endfacet
  facet normal 0 0 -1
    outer loop
      vertex 13.6653 15.1633 0
      vertex 0 20 0
      vertex 13.8588 15.8011 0
    endloop
  endfacet
  facet normal 0 0 -1
    outer loop
      vertex 6.16733 4.66835 0
      vertex 8.97833 4.55892 0
      vertex 8.91353 4.12209 0
    endloop
  endfacet
  facet normal 0 0 -1
    outer loop
      vertex 6.16733 4.66835 0
      vertex 8.91353 4.12209 0
      vertex 8.80623 3.69372 0
    endloop
  endfacet
  facet normal 0 0 -1
    outer loop
      vertex 6.16733 4.66835 0
      vertex 8.80623 3.69372 0
      vertex 8.65746 3.27792 0
    endloop
  endfacet
  facet normal 0 0 -1
    outer loop
      vertex 6.16733 4.66835 0
      vertex 8.65746 3.27792 0
      vertex 8.46865 2.87871 0
    endloop
  endfacet
  facet normal 0 0 -1
    outer loop
      vertex 6.16733 4.66835 0
      vertex 8.46865 2.87871 0
      vertex 8.24161 2.49993 0
    endloop
  endfacet
  facet normal 0 0 -1
    outer loop
      vertex 6.16733 4.66835 0
      vertex 8.24161 2.49993 0
      vertex 7.97855 2.14523 0
    endloop
  endfacet
  facet normal 0 0 -1
    outer loop
      vertex 6.16733 4.66835 0
      vertex 7.97855 2.14523 0
      vertex 7.68198 1.81802 0
    endloop
  endfacet
  facet normal 0 0 -1
    outer loop
      vertex 6.16733 4.66835 0
      vertex 7.68198 1.81802 0
      vertex 7.35477 1.52145 0
    endloop
  endfacet
  facet normal 0 0 -1
    outer loop
      vertex 6.16733 4.66835 0
      vertex 7.35477 1.52145 0
      vertex 7.00007 1.25839 0
    endloop
  endfacet
  facet normal 0 0 -1
    outer loop
      vertex 6.16733 4.66835 0
      vertex 7.00007 1.25839 0
      vertex 6.62128 1.03135 0
    endloop
  endfacet
  facet normal 0 0 -1
    outer loop
      vertex 5.15056 3.4294 0
      vertex 6.62128 1.03135 0
      vertex 6.22207 0.842542 0
    endloop
  endfacet
  facet normal 0 0 -1
    outer loop
      vertex 9 5 0
      vertex 6.2 5 0
      vertex 6.16733 5.33165 0
    endloop
  endfacet
  facet normal 0 0 -1
    outer loop
      vertex 9 5 0
      vertex 6.16733 5.33165 0
      vertex 6.07059 5.65056 0
    endloop
  endfacet
  facet normal 0 0 -1
    outer loop
      vertex 5.9135 5.94447 0
      vertex 9 5 0
      vertex 6.07059 5.65056 0
    endloop
  endfacet
  facet normal 0 0 -1
    outer loop
      vertex 9 5 0
      vertex 5.9135 5.94447 0
      vertex 9 9 0
    endloop
  endfacet
  facet normal 0 0 -1
    outer loop
      vertex 5.70208 6.20208 0
      vertex 9 9 0
      vertex 5.9135 5.94447 0
    endloop
  endfacet
  facet normal 0 0 -1
    outer loop
      vertex 5.44447 6.4135 0
      vertex 9 9 0
      vertex 5.70208 6.20208 0
    endloop
  endfacet
  facet normal 0 0 -1
    outer loop
      vertex 5.15056 6.57059 0
      vertex 9 9 0
      vertex 5.44447 6.4135 0
    endloop
  endfacet
  facet normal 0 0 -1
    outer loop
      vertex 4.83165 6.66733 0
      vertex 9 9 0
      vertex 5.15056 6.57059 0
    endloop
  endfacet
  facet normal 0 0 -1
    outer loop
      vertex 4.5 6.7 0
      vertex 9 9 0
      vertex 4.83165 6.66733 0
    endloop
  endfacet
  facet normal 0 0 -1
    outer loop
      vertex 13.8588 15.8011 0
      vertex 0 20 0
      vertex 14.173 16.3889 0
    endloop
  endfacet
  facet normal -0 0 -1
    outer loop
      vertex 9 9 0
      vertex 4.5 6.7 0
      vertex 0 20 0
    endloop
  endfacet
  facet normal 0 0 -1
    outer loop
      vertex 0 20 0
      vertex 4.5 6.7 0
      vertex 4.16835 6.66733 0
    endloop
  endfacet
  facet normal 0 0 -1
    outer loop
      vertex 0 20 0
      vertex 4.16835 6.66733 0
      vertex 3.84944 6.57059 0
    endloop
  endfacet
  facet normal 0 0 -1
    outer loop
      vertex 0 20 0
      vertex 3.84944 6.57059 0
      vertex 3.55553 6.4135 0
    endloop
  endfacet
  facet normal 0 0 -1
    outer loop
      vertex 0 5 0
      vertex 3.55553 6.4135 0
      vertex 3.29792 6.20208 0
    endloop
  endfacet
  facet normal 0 0 -1
    outer loop
      vertex 1.02145 2.14523 0
      vertex 3.29792 3.79792 0
      vertex 1.31802 1.81802 0
    endloop
  endfacet
  facet normal -0 0 -1
    outer loop
      vertex 3.29792 3.79792 0
      vertex 1.02145 2.14523 0
      vertex 3.0865 4.05553 0
    endloop
  endfacet
  facet normal 0 0 -1
    outer loop
      vertex 0.758387 2.49993 0
      vertex 3.0865 4.05553 0
      vertex 1.02145 2.14523 0
    endloop
  endfacet
  facet normal 0 0 -1
    outer loop
      vertex 0.531354 2.87871 0
      vertex 3.0865 4.05553 0
      vertex 0.758387 2.49993 0
    endloop
  endfacet
  facet normal -0 0 -1
    outer loop
      vertex 3.0865 4.05553 0
      vertex 0.531354 2.87871 0
      vertex 2.9294 4.34944 0
    endloop
  endfacet
  facet normal 0 0 -1
    outer loop
      vertex 0.342542 3.27792 0
      vertex 2.9294 4.34944 0
      vertex 0.531354 2.87871 0
    endloop
  endfacet
  facet normal 0 0 -1
    outer loop
      vertex 0.193768 3.69372 0
      vertex 2.9294 4.34944 0
      vertex 0.342542 3.27792 0
    endloop
  endfacet
  facet normal -0 0 -1
    outer loop
      vertex 2.9294 4.34944 0
      vertex 0.193768 3.69372 0
      vertex 2.83266 4.66835 0
    endloop
  endfacet
  facet normal 0 0 -1
    outer loop
      vertex 0.0864658 4.12209 0
      vertex 2.83266 4.66835 0
      vertex 0.193768 3.69372 0
    endloop
  endfacet
  facet normal 0 0 -1
    outer loop
      vertex 0.0216684 4.55892 0
      vertex 2.83266 4.66835 0
      vertex 0.0864658 4.12209 0
    endloop
  endfacet
  facet normal -0 0 -1
    outer loop
      vertex 2.83266 4.66835 0
      vertex 0.0216684 4.55892 0
      vertex 2.8 5 0
    endloop
  endfacet
  facet normal 0 0 -1
    outer loop
      vertex 0 5 0
      vertex 2.8 5 0
      vertex 0.0216684 4.55892 0
    endloop
  endfacet
  facet normal 0 0 -1
    outer loop
      vertex 2.8 5 0
      vertex 0 5 0
      vertex 2.83266 5.33165 0
    endloop
  endfacet
  facet normal -0 0 -1
    outer loop
      vertex 2.83266 5.33165 0
      vertex 0 5 0
      vertex 2.9294 5.65056 0
    endloop
  endfacet
  facet normal -0 0 -1
    outer loop
      vertex 2.9294 5.65056 0
      vertex 0 5 0
      vertex 3.0865 5.94447 0
    endloop
  endfacet
  facet normal -0 0 -1
    outer loop
      vertex 3.0865 5.94447 0
      vertex 0 5 0
      vertex 3.29792 6.20208 0
    endloop
  endfacet
  facet normal -0 0 -1
    outer loop
      vertex 3.55553 6.4135 0
      vertex 0 5 0
      vertex 0 20 0
    endloop
  endfacet
  facet normal 0 0 -1
    outer loop
      vertex 14.5958 16.9042 0
      vertex 0 20 0
      vertex 17 20 0
    endloop
  endfacet
  facet normal 0.941544 -0.336891 0
    outer loop
      vertex 8.65746 3.27792 8
      vertex 8.80623 3.69372 0
      vertex 8.80623 3.69372 8
    endloop
  endfacet
  facet normal 0.941544 -0.336891 0
    outer loop
      vertex 8.80623 3.69372 0
      vertex 8.65746 3.27792 8
      vertex 8.65746 3.27792 0
    endloop
  endfacet
  facet normal -0.336891 -0.941544 0
    outer loop
      vertex 2.77792 0.842542 0
      vertex 3.19372 0.693768 8
      vertex 2.77792 0.842542 8
    endloop
  endfacet
  facet normal -0.336891 -0.941544 -0
    outer loop
      vertex 3.19372 0.693768 8
      vertex 2.77792 0.842542 0
      vertex 3.19372 0.693768 0
    endloop
  endfacet
  facet normal 0.998795 -0.0490691 0
    outer loop
      vertex 8.97833 4.55892 8
      vertex 9 5 0
      vertex 9 5 8
    endloop
  endfacet
  facet normal 0.998795 -0.0490691 0
    outer loop
      vertex 9 5 0
      vertex 8.97833 4.55892 8
      vertex 8.97833 4.55892 0
    endloop
  endfacet
  facet normal 0.803208 -0.595699 0
    outer loop
      vertex 7.97855 2.14523 8
      vertex 8.24161 2.49993 0
      vertex 8.24161 2.49993 8
    endloop
  endfacet
  facet normal 0.803208 -0.595699 0
    outer loop
      vertex 8.24161 2.49993 0
      vertex 7.97855 2.14523 8
      vertex 7.97855 2.14523 0
    endloop
  endfacet
  facet normal -0.0490671 -0.998795 0
    outer loop
      vertex 4.05892 0.521668 0
      vertex 4.5 0.5 8
      vertex 4.05892 0.521668 8
    endloop
  endfacet
  facet normal -0.0490671 -0.998795 -0
    outer loop
      vertex 4.5 0.5 8
      vertex 4.05892 0.521668 0
      vertex 4.5 0.5 0
    endloop
  endfacet
  facet normal -0.595699 -0.803208 0
    outer loop
      vertex 1.64523 1.52145 0
      vertex 1.99993 1.25839 8
      vertex 1.64523 1.52145 8
    endloop
  endfacet
  facet normal -0.595699 -0.803208 -0
    outer loop
      vertex 1.99993 1.25839 8
      vertex 1.64523 1.52145 0
      vertex 1.99993 1.25839 0
    endloop
  endfacet
  facet normal -0.970031 -0.242979 0
    outer loop
      vertex 0.193768 3.69372 0
      vertex 0.0864658 4.12209 8
      vertex 0.0864658 4.12209 0
    endloop
  endfacet
  facet normal -0.970031 -0.242979 0
    outer loop
      vertex 0.0864658 4.12209 8
      vertex 0.193768 3.69372 0
      vertex 0.193768 3.69372 8
    endloop
  endfacet
  facet normal -0.998795 -0.049067 0
    outer loop
      vertex 0.0216684 4.55892 0
      vertex 0 5 8
      vertex 0 5 0
    endloop
  endfacet
  facet normal -0.998795 -0.049067 0
    outer loop
      vertex 0 5 8
      vertex 0.0216684 4.55892 0
      vertex 0.0216684 4.55892 8
    endloop
  endfacet
  facet normal 0.14673 -0.989177 0
    outer loop
      vertex 4.94108 0.521668 0
      vertex 5.37791 0.586466 8
      vertex 4.94108 0.521668 8
    endloop
  endfacet
  facet normal 0.14673 -0.989177 0
    outer loop
      vertex 5.37791 0.586466 8
      vertex 4.94108 0.521668 0
      vertex 5.37791 0.586466 0
    endloop
  endfacet
  facet normal 0.242979 -0.970031 0
    outer loop
      vertex 5.37791 0.586466 0
      vertex 5.80628 0.693768 8
      vertex 5.37791 0.586466 8
    endloop
  endfacet
  facet normal 0.242979 -0.970031 0
    outer loop
      vertex 5.80628 0.693768 8
      vertex 5.37791 0.586466 0
      vertex 5.80628 0.693768 0
    endloop
  endfacet
  facet normal 0.336891 -0.941544 0
    outer loop
      vertex 5.80628 0.693768 0
      vertex 6.22207 0.842542 8
      vertex 5.80628 0.693768 8
    endloop
  endfacet
  facet normal 0.336891 -0.941544 0
    outer loop
      vertex 6.22207 0.842542 8
      vertex 5.80628 0.693768 0
      vertex 6.22207 0.842542 0
    endloop
  endfacet
  facet normal 0.671559 -0.740951 0
    outer loop
      vertex 7.35477 1.52145 0
      vertex 7.68198 1.81802 8
      vertex 7.35477 1.52145 8
    endloop
  endfacet
  facet normal 0.671559 -0.740951 0
    outer loop
      vertex 7.68198 1.81802 8
      vertex 7.35477 1.52145 0
      vertex 7.68198 1.81802 0
    endloop
  endfacet
  facet normal 0.514103 -0.857729 0
    outer loop
      vertex 6.62128 1.03135 0
      vertex 7.00007 1.25839 8
      vertex 6.62128 1.03135 8
    endloop
  endfacet
  facet normal 0.514103 -0.857729 0
    outer loop
      vertex 7.00007 1.25839 8
      vertex 6.62128 1.03135 0
      vertex 7.00007 1.25839 0
    endloop
  endfacet
  facet normal 0.903989 -0.427555 0
    outer loop
      vertex 8.46865 2.87871 8
      vertex 8.65746 3.27792 0
      vertex 8.65746 3.27792 8
    endloop
  endfacet
  facet normal 0.903989 -0.427555 0
    outer loop
      vertex 8.65746 3.27792 0
      vertex 8.46865 2.87871 8
      vertex 8.46865 2.87871 0
    endloop
  endfacet
  facet normal 0.049067 -0.998795 0
    outer loop
      vertex 4.5 0.5 0
      vertex 4.94108 0.521668 8
      vertex 4.5 0.5 8
    endloop
  endfacet
  facet normal 0.049067 -0.998795 0
    outer loop
      vertex 4.94108 0.521668 8
      vertex 4.5 0.5 0
      vertex 4.94108 0.521668 0
    endloop
  endfacet
  facet normal -0.242979 -0.970031 0
    outer loop
      vertex 3.19372 0.693768 0
      vertex 3.62209 0.586466 8
      vertex 3.19372 0.693768 8
    endloop
  endfacet
  facet normal -0.242979 -0.970031 -0
    outer loop
      vertex 3.62209 0.586466 8
      vertex 3.19372 0.693768 0
      vertex 3.62209 0.586466 0
    endloop
  endfacet
  facet normal -0.427555 -0.903989 0
    outer loop
      vertex 2.37871 1.03135 0
      vertex 2.77792 0.842542 8
      vertex 2.37871 1.03135 8
    endloop
  endfacet
  facet normal -0.427555 -0.903989 -0
    outer loop
      vertex 2.77792 0.842542 8
      vertex 2.37871 1.03135 0
      vertex 2.77792 0.842542 0
    endloop
  endfacet
  facet normal -0.941544 -0.336891 0
    outer loop
      vertex 0.342542 3.27792 0
      vertex 0.193768 3.69372 8
      vertex 0.193768 3.69372 0
    endloop
  endfacet
  facet normal -0.941544 -0.336891 0
    outer loop
      vertex 0.193768 3.69372 8
      vertex 0.342542 3.27792 0
      vertex 0.342542 3.27792 8
    endloop
  endfacet
  facet normal -0.989177 -0.14673 0
    outer loop
      vertex 0.0864658 4.12209 0
      vertex 0.0216684 4.55892 8
      vertex 0.0216684 4.55892 0
    endloop
  endfacet
  facet normal -0.989177 -0.14673 0
    outer loop
      vertex 0.0216684 4.55892 8
      vertex 0.0864658 4.12209 0
      vertex 0.0864658 4.12209 8
    endloop
  endfacet
  facet normal -0.740951 -0.671559 0
    outer loop
      vertex 1.31802 1.81802 0
      vertex 1.02145 2.14523 8
      vertex 1.02145 2.14523 0
    endloop
  endfacet
  facet normal -0.740951 -0.671559 0
    outer loop
      vertex 1.02145 2.14523 8
      vertex 1.31802 1.81802 0
      vertex 1.31802 1.81802 8
    endloop
  endfacet
  facet normal -0.857729 -0.514103 0
    outer loop
      vertex 0.758387 2.49993 0
      vertex 0.531354 2.87871 8
      vertex 0.531354 2.87871 0
    endloop
  endfacet
  facet normal -0.857729 -0.514103 0
    outer loop
      vertex 0.531354 2.87871 8
      vertex 0.758387 2.49993 0
      vertex 0.758387 2.49993 8
    endloop
  endfacet
  facet normal -0.671559 -0.740951 0
    outer loop
      vertex 1.31802 1.81802 0
      vertex 1.64523 1.52145 8
      vertex 1.31802 1.81802 8
    endloop
  endfacet
  facet normal -0.671559 -0.740951 -0
    outer loop
      vertex 1.64523 1.52145 8
      vertex 1.31802 1.81802 0
      vertex 1.64523 1.52145 0
    endloop
  endfacet
  facet normal 0.989177 -0.14673 0
    outer loop
      vertex 8.91353 4.12209 8
      vertex 8.97833 4.55892 0
      vertex 8.97833 4.55892 8
    endloop
  endfacet
  facet normal 0.989177 -0.14673 0
    outer loop
      vertex 8.97833 4.55892 0
      vertex 8.91353 4.12209 8
      vertex 8.91353 4.12209 0
    endloop
  endfacet
  facet normal 0.970031 -0.242979 0
    outer loop
      vertex 8.80623 3.69372 8
      vertex 8.91353 4.12209 0
      vertex 8.91353 4.12209 8
    endloop
  endfacet
  facet normal 0.970031 -0.242979 0
    outer loop
      vertex 8.91353 4.12209 0
      vertex 8.80623 3.69372 8
      vertex 8.80623 3.69372 0
    endloop
  endfacet
  facet normal 0.427555 -0.903989 0
    outer loop
      vertex 6.22207 0.842542 0
      vertex 6.62128 1.03135 8
      vertex 6.22207 0.842542 8
    endloop
  endfacet
  facet normal 0.427555 -0.903989 0
    outer loop
      vertex 6.62128 1.03135 8
      vertex 6.22207 0.842542 0
      vertex 6.62128 1.03135 0
    endloop
  endfacet
  facet normal 0.740951 -0.671559 0
    outer loop
      vertex 7.68198 1.81802 8
      vertex 7.97855 2.14523 0
      vertex 7.97855 2.14523 8
    endloop
  endfacet
  facet normal 0.740951 -0.671559 0
    outer loop
      vertex 7.97855 2.14523 0
      vertex 7.68198 1.81802 8
      vertex 7.68198 1.81802 0
    endloop
  endfacet
  facet normal 0.595699 -0.803208 0
    outer loop
      vertex 7.00007 1.25839 0
      vertex 7.35477 1.52145 8
      vertex 7.00007 1.25839 8
    endloop
  endfacet
  facet normal 0.595699 -0.803208 0
    outer loop
      vertex 7.35477 1.52145 8
      vertex 7.00007 1.25839 0
      vertex 7.35477 1.52145 0
    endloop
  endfacet
  facet normal 0.857729 -0.514103 0
    outer loop
      vertex 8.24161 2.49993 8
      vertex 8.46865 2.87871 0
      vertex 8.46865 2.87871 8
    endloop
  endfacet
  facet normal 0.857729 -0.514103 0
    outer loop
      vertex 8.46865 2.87871 0
      vertex 8.24161 2.49993 8
      vertex 8.24161 2.49993 0
    endloop
  endfacet
  facet normal -0.14673 -0.989177 0
    outer loop
      vertex 3.62209 0.586466 0
      vertex 4.05892 0.521668 8
      vertex 3.62209 0.586466 8
    endloop
  endfacet
  facet normal -0.14673 -0.989177 -0
    outer loop
      vertex 4.05892 0.521668 8
      vertex 3.62209 0.586466 0
      vertex 4.05892 0.521668 0
    endloop
  endfacet
  facet normal -0.514103 -0.857729 0
    outer loop
      vertex 1.99993 1.25839 0
      vertex 2.37871 1.03135 8
      vertex 1.99993 1.25839 8
    endloop
  endfacet
  facet normal -0.514103 -0.857729 -0
    outer loop
      vertex 2.37871 1.03135 8
      vertex 1.99993 1.25839 0
      vertex 2.37871 1.03135 0
    endloop
  endfacet
  facet normal -0.903989 -0.427555 0
    outer loop
      vertex 0.531354 2.87871 0
      vertex 0.342542 3.27792 8
      vertex 0.342542 3.27792 0
    endloop
  endfacet
  facet normal -0.903989 -0.427555 0
    outer loop
      vertex 0.342542 3.27792 8
      vertex 0.531354 2.87871 0
      vertex 0.531354 2.87871 8
    endloop
  endfacet
  facet normal -0.803208 -0.595699 0
    outer loop
      vertex 1.02145 2.14523 0
      vertex 0.758387 2.49993 8
      vertex 0.758387 2.49993 0
    endloop
  endfacet
  facet normal -0.803208 -0.595699 0
    outer loop
      vertex 0.758387 2.49993 8
      vertex 1.02145 2.14523 0
      vertex 1.02145 2.14523 8
    endloop
  endfacet
  facet normal 0 0 1
    outer loop
      vertex 21.2 14.5 3
      vertex 22.5 14.5 3
      vertex 22.4735 15.0391 3
    endloop
  endfacet
  facet normal 0 0 1
    outer loop
      vertex 21.2 14.5 3
      vertex 22.4735 15.0391 3
      vertex 22.3943 15.573 3
    endloop
  endfacet
  facet normal 0 0 1
    outer loop
      vertex 22.5 14.5 3
      vertex 21.2 14.5 3
      vertex 22.4735 13.9609 3
    endloop
  endfacet
  facet normal 0 0 1
    outer loop
      vertex 21.2 14.5 3
      vertex 22.3943 15.573 3
      vertex 22.2632 16.0966 3
    endloop
  endfacet
  facet normal 0 0 1
    outer loop
      vertex 22.4735 13.9609 3
      vertex 21.2 14.5 3
      vertex 22.3943 13.427 3
    endloop
  endfacet
  facet normal 0 0 1
    outer loop
      vertex 21.2 14.5 3
      vertex 22.2632 16.0966 3
      vertex 22.0813 16.6048 3
    endloop
  endfacet
  facet normal 0 0 1
    outer loop
      vertex 22.3943 13.427 3
      vertex 21.2 14.5 3
      vertex 22.2632 12.9034 3
    endloop
  endfacet
  facet normal 0 0 1
    outer loop
      vertex 21.2 14.5 3
      vertex 22.0813 16.6048 3
      vertex 21.8506 17.0927 3
    endloop
  endfacet
  facet normal 0 0 1
    outer loop
      vertex 22.2632 12.9034 3
      vertex 21.2 14.5 3
      vertex 22.0813 12.3952 3
    endloop
  endfacet
  facet normal 0 0 1
    outer loop
      vertex 19.1 18.1373 3
      vertex 21.8506 17.0927 3
      vertex 21.5731 17.5556 3
    endloop
  endfacet
  facet normal 0 0 1
    outer loop
      vertex 22.0813 12.3952 3
      vertex 21.2 14.5 3
      vertex 21.8506 11.9073 3
    endloop
  endfacet
  facet normal 0 0 1
    outer loop
      vertex 19.1 18.1373 3
      vertex 21.5731 17.5556 3
      vertex 21.2516 17.9892 3
    endloop
  endfacet
  facet normal 0 0 1
    outer loop
      vertex 19.1 10.8627 3
      vertex 21.8506 11.9073 3
      vertex 21.2 14.5 3
    endloop
  endfacet
  facet normal 0 0 1
    outer loop
      vertex 21.8506 11.9073 3
      vertex 19.1 10.8627 3
      vertex 21.5731 11.4444 3
    endloop
  endfacet
  facet normal -0 0 1
    outer loop
      vertex 19.1 18.1373 3
      vertex 21.2516 17.9892 3
      vertex 20.8891 18.3891 3
    endloop
  endfacet
  facet normal 0 0 1
    outer loop
      vertex 19.1 18.1373 3
      vertex 20.8891 18.3891 3
      vertex 20.4892 18.7516 3
    endloop
  endfacet
  facet normal 0 0 1
    outer loop
      vertex 19.1 18.1373 3
      vertex 20.4892 18.7516 3
      vertex 20.0556 19.0731 3
    endloop
  endfacet
  facet normal 0 0 1
    outer loop
      vertex 19.1 18.1373 3
      vertex 20.0556 19.0731 3
      vertex 19.5927 19.3506 3
    endloop
  endfacet
  facet normal 0 0 1
    outer loop
      vertex 19.1 18.1373 3
      vertex 19.5927 19.3506 3
      vertex 19.1048 19.5813 3
    endloop
  endfacet
  facet normal 0 0 1
    outer loop
      vertex 21.8506 17.0927 3
      vertex 19.1 18.1373 3
      vertex 21.2 14.5 3
    endloop
  endfacet
  facet normal 0 0 1
    outer loop
      vertex 18.5966 19.7632 3
      vertex 19.1 18.1373 3
      vertex 19.1048 19.5813 3
    endloop
  endfacet
  facet normal 0 0 1
    outer loop
      vertex 18.073 19.8943 3
      vertex 19.1 18.1373 3
      vertex 18.5966 19.7632 3
    endloop
  endfacet
  facet normal 0 0 1
    outer loop
      vertex 17.5391 19.9735 3
      vertex 19.1 18.1373 3
      vertex 18.073 19.8943 3
    endloop
  endfacet
  facet normal 0 0 1
    outer loop
      vertex 17 20 3
      vertex 19.1 18.1373 3
      vertex 17.5391 19.9735 3
    endloop
  endfacet
  facet normal 0 0 1
    outer loop
      vertex 14.9 18.1373 3
      vertex 17 20 3
      vertex 15 20 3
    endloop
  endfacet
  facet normal 0 0 1
    outer loop
      vertex 17 20 3
      vertex 14.9 18.1373 3
      vertex 19.1 18.1373 3
    endloop
  endfacet
  facet normal -0 0 1
    outer loop
      vertex 9 20 3
      vertex 14.9 18.1373 3
      vertex 15 20 3
    endloop
  endfacet
  facet normal 0 0 1
    outer loop
      vertex 14.9 18.1373 3
      vertex 9 20 3
      vertex 12.8 14.5 3
    endloop
  endfacet
  facet normal 0 0 1
    outer loop
      vertex 21.5731 11.4444 3
      vertex 19.1 10.8627 3
      vertex 21.2516 11.0108 3
    endloop
  endfacet
  facet normal 0 0 1
    outer loop
      vertex 21.2516 11.0108 3
      vertex 19.1 10.8627 3
      vertex 20.8891 10.6109 3
    endloop
  endfacet
  facet normal 0 0 1
    outer loop
      vertex 20.8891 10.6109 3
      vertex 19.1 10.8627 3
      vertex 20.4892 10.2484 3
    endloop
  endfacet
  facet normal 0 0 1
    outer loop
      vertex 20.4892 10.2484 3
      vertex 19.1 10.8627 3
      vertex 20.0556 9.92692 3
    endloop
  endfacet
  facet normal 0 0 1
    outer loop
      vertex 20.0556 9.92692 3
      vertex 19.1 10.8627 3
      vertex 19.5927 9.64943 3
    endloop
  endfacet
  facet normal 0 0 1
    outer loop
      vertex 19.5927 9.64943 3
      vertex 19.1 10.8627 3
      vertex 19.1048 9.41866 3
    endloop
  endfacet
  facet normal 0 0 1
    outer loop
      vertex 19.1 10.8627 3
      vertex 18.5966 9.23683 3
      vertex 19.1048 9.41866 3
    endloop
  endfacet
  facet normal 0 0 1
    outer loop
      vertex 19.1 10.8627 3
      vertex 18.073 9.10568 3
      vertex 18.5966 9.23683 3
    endloop
  endfacet
  facet normal 0 0 1
    outer loop
      vertex 19.1 10.8627 3
      vertex 17.5391 9.02648 3
      vertex 18.073 9.10568 3
    endloop
  endfacet
  facet normal 0 0 1
    outer loop
      vertex 19.1 10.8627 3
      vertex 17 9 3
      vertex 17.5391 9.02648 3
    endloop
  endfacet
  facet normal -0 0 1
    outer loop
      vertex 14.9 10.8627 3
      vertex 17 9 3
      vertex 19.1 10.8627 3
    endloop
  endfacet
  facet normal 0 0 1
    outer loop
      vertex 9 9 3
      vertex 12.8 14.5 3
      vertex 9 20 3
    endloop
  endfacet
  facet normal 0 0 1
    outer loop
      vertex 14.9 10.8627 3
      vertex 9 9 3
      vertex 17 9 3
    endloop
  endfacet
  facet normal 0 0 1
    outer loop
      vertex 12.8 14.5 3
      vertex 9 9 3
      vertex 14.9 10.8627 3
    endloop
  endfacet
  facet normal 0 -1 0
    outer loop
      vertex 9 9 0
      vertex 17 9 3
      vertex 9 9 3
    endloop
  endfacet
  facet normal 0 -1 -0
    outer loop
      vertex 17 9 3
      vertex 9 9 0
      vertex 17 9 0
    endloop
  endfacet
  facet normal 0.595699 0.803207 -0
    outer loop
      vertex 20.4892 18.7516 0
      vertex 20.0556 19.0731 3
      vertex 20.4892 18.7516 3
    endloop
  endfacet
  facet normal 0.595699 0.803207 0
    outer loop
      vertex 20.0556 19.0731 3
      vertex 20.4892 18.7516 0
      vertex 20.0556 19.0731 0
    endloop
  endfacet
  facet normal 0.998795 -0.0490703 0
    outer loop
      vertex 22.4735 13.9609 3
      vertex 22.5 14.5 0
      vertex 22.5 14.5 3
    endloop
  endfacet
  facet normal 0.998795 -0.0490703 0
    outer loop
      vertex 22.5 14.5 0
      vertex 22.4735 13.9609 3
      vertex 22.4735 13.9609 0
    endloop
  endfacet
  facet normal 0.903989 0.427555 0
    outer loop
      vertex 22.0813 16.6048 3
      vertex 21.8506 17.0927 0
      vertex 21.8506 17.0927 3
    endloop
  endfacet
  facet normal 0.903989 0.427555 0
    outer loop
      vertex 21.8506 17.0927 0
      vertex 22.0813 16.6048 3
      vertex 22.0813 16.6048 0
    endloop
  endfacet
  facet normal 0.857728 0.514104 0
    outer loop
      vertex 21.8506 17.0927 3
      vertex 21.5731 17.5556 0
      vertex 21.5731 17.5556 3
    endloop
  endfacet
  facet normal 0.857728 0.514104 0
    outer loop
      vertex 21.5731 17.5556 0
      vertex 21.8506 17.0927 3
      vertex 21.8506 17.0927 0
    endloop
  endfacet
  facet normal 0.336891 0.941544 -0
    outer loop
      vertex 19.1048 19.5813 0
      vertex 18.5966 19.7632 3
      vertex 19.1048 19.5813 3
    endloop
  endfacet
  facet normal 0.336891 0.941544 0
    outer loop
      vertex 18.5966 19.7632 3
      vertex 19.1048 19.5813 0
      vertex 18.5966 19.7632 0
    endloop
  endfacet
  facet normal 0.0490704 0.998795 -0
    outer loop
      vertex 17.5391 19.9735 0
      vertex 17 20 3
      vertex 17.5391 19.9735 3
    endloop
  endfacet
  facet normal 0.0490704 0.998795 0
    outer loop
      vertex 17 20 3
      vertex 17.5391 19.9735 0
      vertex 17 20 0
    endloop
  endfacet
  facet normal 0.989177 0.146731 0
    outer loop
      vertex 22.4735 15.0391 3
      vertex 22.3943 15.573 0
      vertex 22.3943 15.573 3
    endloop
  endfacet
  facet normal 0.989177 0.146731 0
    outer loop
      vertex 22.3943 15.573 0
      vertex 22.4735 15.0391 3
      vertex 22.4735 15.0391 0
    endloop
  endfacet
  facet normal 0.970032 0.242977 0
    outer loop
      vertex 22.3943 15.573 3
      vertex 22.2632 16.0966 0
      vertex 22.2632 16.0966 3
    endloop
  endfacet
  facet normal 0.970032 0.242977 0
    outer loop
      vertex 22.2632 16.0966 0
      vertex 22.3943 15.573 3
      vertex 22.3943 15.573 0
    endloop
  endfacet
  facet normal 0.941544 0.336891 0
    outer loop
      vertex 22.2632 16.0966 3
      vertex 22.0813 16.6048 0
      vertex 22.0813 16.6048 3
    endloop
  endfacet
  facet normal 0.941544 0.336891 0
    outer loop
      vertex 22.0813 16.6048 0
      vertex 22.2632 16.0966 3
      vertex 22.2632 16.0966 0
    endloop
  endfacet
  facet normal 0.740953 0.671557 0
    outer loop
      vertex 21.2516 17.9892 3
      vertex 20.8891 18.3891 0
      vertex 20.8891 18.3891 3
    endloop
  endfacet
  facet normal 0.740953 0.671557 0
    outer loop
      vertex 20.8891 18.3891 0
      vertex 21.2516 17.9892 3
      vertex 21.2516 17.9892 0
    endloop
  endfacet
  facet normal 0.803207 0.595699 0
    outer loop
      vertex 21.5731 17.5556 3
      vertex 21.2516 17.9892 0
      vertex 21.2516 17.9892 3
    endloop
  endfacet
  facet normal 0.803207 0.595699 0
    outer loop
      vertex 21.2516 17.9892 0
      vertex 21.5731 17.5556 3
      vertex 21.5731 17.5556 0
    endloop
  endfacet
  facet normal 0.671557 0.740953 -0
    outer loop
      vertex 20.8891 18.3891 0
      vertex 20.4892 18.7516 3
      vertex 20.8891 18.3891 3
    endloop
  endfacet
  facet normal 0.671557 0.740953 0
    outer loop
      vertex 20.4892 18.7516 3
      vertex 20.8891 18.3891 0
      vertex 20.4892 18.7516 0
    endloop
  endfacet
  facet normal 0.514104 0.857728 -0
    outer loop
      vertex 20.0556 19.0731 0
      vertex 19.5927 19.3506 3
      vertex 20.0556 19.0731 3
    endloop
  endfacet
  facet normal 0.514104 0.857728 0
    outer loop
      vertex 19.5927 19.3506 3
      vertex 20.0556 19.0731 0
      vertex 19.5927 19.3506 0
    endloop
  endfacet
  facet normal 0.427555 0.903989 -0
    outer loop
      vertex 19.5927 19.3506 0
      vertex 19.1048 19.5813 3
      vertex 19.5927 19.3506 3
    endloop
  endfacet
  facet normal 0.427555 0.903989 0
    outer loop
      vertex 19.1048 19.5813 3
      vertex 19.5927 19.3506 0
      vertex 19.1048 19.5813 0
    endloop
  endfacet
  facet normal 0.242977 0.970032 -0
    outer loop
      vertex 18.5966 19.7632 0
      vertex 18.073 19.8943 3
      vertex 18.5966 19.7632 3
    endloop
  endfacet
  facet normal 0.242977 0.970032 0
    outer loop
      vertex 18.073 19.8943 3
      vertex 18.5966 19.7632 0
      vertex 18.073 19.8943 0
    endloop
  endfacet
  facet normal 0.14673 0.989177 -0
    outer loop
      vertex 18.073 19.8943 0
      vertex 17.5391 19.9735 3
      vertex 18.073 19.8943 3
    endloop
  endfacet
  facet normal 0.14673 0.989177 0
    outer loop
      vertex 17.5391 19.9735 3
      vertex 18.073 19.8943 0
      vertex 17.5391 19.9735 0
    endloop
  endfacet
  facet normal 0.998795 0.0490704 0
    outer loop
      vertex 22.5 14.5 3
      vertex 22.4735 15.0391 0
      vertex 22.4735 15.0391 3
    endloop
  endfacet
  facet normal 0.998795 0.0490704 0
    outer loop
      vertex 22.4735 15.0391 0
      vertex 22.5 14.5 3
      vertex 22.5 14.5 0
    endloop
  endfacet
  facet normal 0.14673 -0.989177 0
    outer loop
      vertex 17.5391 9.02648 0
      vertex 18.073 9.10568 3
      vertex 17.5391 9.02648 3
    endloop
  endfacet
  facet normal 0.14673 -0.989177 0
    outer loop
      vertex 18.073 9.10568 3
      vertex 17.5391 9.02648 0
      vertex 18.073 9.10568 0
    endloop
  endfacet
  facet normal 0.970032 -0.242977 0
    outer loop
      vertex 22.2632 12.9034 3
      vertex 22.3943 13.427 0
      vertex 22.3943 13.427 3
    endloop
  endfacet
  facet normal 0.970032 -0.242977 0
    outer loop
      vertex 22.3943 13.427 0
      vertex 22.2632 12.9034 3
      vertex 22.2632 12.9034 0
    endloop
  endfacet
  facet normal 0.90399 -0.427554 0
    outer loop
      vertex 21.8506 11.9073 3
      vertex 22.0813 12.3952 0
      vertex 22.0813 12.3952 3
    endloop
  endfacet
  facet normal 0.90399 -0.427554 0
    outer loop
      vertex 22.0813 12.3952 0
      vertex 21.8506 11.9073 3
      vertex 21.8506 11.9073 0
    endloop
  endfacet
  facet normal 0.24298 -0.970031 0
    outer loop
      vertex 18.073 9.10568 0
      vertex 18.5966 9.23683 3
      vertex 18.073 9.10568 3
    endloop
  endfacet
  facet normal 0.24298 -0.970031 0
    outer loop
      vertex 18.5966 9.23683 3
      vertex 18.073 9.10568 0
      vertex 18.5966 9.23683 0
    endloop
  endfacet
  facet normal 0.336889 -0.941544 0
    outer loop
      vertex 18.5966 9.23683 0
      vertex 19.1048 9.41866 3
      vertex 18.5966 9.23683 3
    endloop
  endfacet
  facet normal 0.336889 -0.941544 0
    outer loop
      vertex 19.1048 9.41866 3
      vertex 18.5966 9.23683 0
      vertex 19.1048 9.41866 0
    endloop
  endfacet
  facet normal 0.740953 -0.671557 0
    outer loop
      vertex 20.8891 10.6109 3
      vertex 21.2516 11.0108 0
      vertex 21.2516 11.0108 3
    endloop
  endfacet
  facet normal 0.740953 -0.671557 0
    outer loop
      vertex 21.2516 11.0108 0
      vertex 20.8891 10.6109 3
      vertex 20.8891 10.6109 0
    endloop
  endfacet
  facet normal 0.671558 -0.740952 0
    outer loop
      vertex 20.4892 10.2484 0
      vertex 20.8891 10.6109 3
      vertex 20.4892 10.2484 3
    endloop
  endfacet
  facet normal 0.671558 -0.740952 0
    outer loop
      vertex 20.8891 10.6109 3
      vertex 20.4892 10.2484 0
      vertex 20.8891 10.6109 0
    endloop
  endfacet
  facet normal 0.514104 -0.857728 0
    outer loop
      vertex 19.5927 9.64943 0
      vertex 20.0556 9.92692 3
      vertex 19.5927 9.64943 3
    endloop
  endfacet
  facet normal 0.514104 -0.857728 0
    outer loop
      vertex 20.0556 9.92692 3
      vertex 19.5927 9.64943 0
      vertex 20.0556 9.92692 0
    endloop
  endfacet
  facet normal 0.0490669 -0.998795 0
    outer loop
      vertex 17 9 0
      vertex 17.5391 9.02648 3
      vertex 17 9 3
    endloop
  endfacet
  facet normal 0.0490669 -0.998795 0
    outer loop
      vertex 17.5391 9.02648 3
      vertex 17 9 0
      vertex 17.5391 9.02648 0
    endloop
  endfacet
  facet normal 0.989177 -0.146731 0
    outer loop
      vertex 22.3943 13.427 3
      vertex 22.4735 13.9609 0
      vertex 22.4735 13.9609 3
    endloop
  endfacet
  facet normal 0.989177 -0.146731 0
    outer loop
      vertex 22.4735 13.9609 0
      vertex 22.3943 13.427 3
      vertex 22.3943 13.427 0
    endloop
  endfacet
  facet normal 0.803207 -0.595699 0
    outer loop
      vertex 21.2516 11.0108 3
      vertex 21.5731 11.4444 0
      vertex 21.5731 11.4444 3
    endloop
  endfacet
  facet normal 0.803207 -0.595699 0
    outer loop
      vertex 21.5731 11.4444 0
      vertex 21.2516 11.0108 3
      vertex 21.2516 11.0108 0
    endloop
  endfacet
  facet normal 0.857728 -0.514104 0
    outer loop
      vertex 21.5731 11.4444 3
      vertex 21.8506 11.9073 0
      vertex 21.8506 11.9073 3
    endloop
  endfacet
  facet normal 0.857728 -0.514104 0
    outer loop
      vertex 21.8506 11.9073 0
      vertex 21.5731 11.4444 3
      vertex 21.5731 11.4444 0
    endloop
  endfacet
  facet normal 0.427555 -0.903989 0
    outer loop
      vertex 19.1048 9.41866 0
      vertex 19.5927 9.64943 3
      vertex 19.1048 9.41866 3
    endloop
  endfacet
  facet normal 0.427555 -0.903989 0
    outer loop
      vertex 19.5927 9.64943 3
      vertex 19.1048 9.41866 0
      vertex 19.5927 9.64943 0
    endloop
  endfacet
  facet normal 0.595698 -0.803208 0
    outer loop
      vertex 20.0556 9.92692 0
      vertex 20.4892 10.2484 3
      vertex 20.0556 9.92692 3
    endloop
  endfacet
  facet normal 0.595698 -0.803208 0
    outer loop
      vertex 20.4892 10.2484 3
      vertex 20.0556 9.92692 0
      vertex 20.4892 10.2484 0
    endloop
  endfacet
  facet normal 0.941544 -0.336891 0
    outer loop
      vertex 22.0813 12.3952 3
      vertex 22.2632 12.9034 0
      vertex 22.2632 12.9034 3
    endloop
  endfacet
  facet normal 0.941544 -0.336891 0
    outer loop
      vertex 22.2632 12.9034 0
      vertex 22.0813 12.3952 3
      vertex 22.0813 12.3952 0
    endloop
  endfacet
  facet normal -0.881921 -0.471397 0
    outer loop
      vertex 6.07059 5.65056 0
      vertex 5.9135 5.94447 8
      vertex 5.9135 5.94447 0
    endloop
  endfacet
  facet normal -0.881921 -0.471397 0
    outer loop
      vertex 5.9135 5.94447 8
      vertex 6.07059 5.65056 0
      vertex 6.07059 5.65056 8
    endloop
  endfacet
  facet normal -0.77301 -0.634394 0
    outer loop
      vertex 5.9135 5.94447 0
      vertex 5.70208 6.20208 8
      vertex 5.70208 6.20208 0
    endloop
  endfacet
  facet normal -0.77301 -0.634394 0
    outer loop
      vertex 5.70208 6.20208 8
      vertex 5.9135 5.94447 0
      vertex 5.9135 5.94447 8
    endloop
  endfacet
  facet normal -0.290284 -0.95694 0
    outer loop
      vertex 4.83165 6.66733 0
      vertex 5.15056 6.57059 8
      vertex 4.83165 6.66733 8
    endloop
  endfacet
  facet normal -0.290284 -0.95694 -0
    outer loop
      vertex 5.15056 6.57059 8
      vertex 4.83165 6.66733 0
      vertex 5.15056 6.57059 0
    endloop
  endfacet
  facet normal 0.471397 -0.881921 0
    outer loop
      vertex 3.55553 6.4135 0
      vertex 3.84944 6.57059 8
      vertex 3.55553 6.4135 8
    endloop
  endfacet
  facet normal 0.471397 -0.881921 0
    outer loop
      vertex 3.84944 6.57059 8
      vertex 3.55553 6.4135 0
      vertex 3.84944 6.57059 0
    endloop
  endfacet
  facet normal 0.95694 -0.290284 0
    outer loop
      vertex 2.83266 5.33165 8
      vertex 2.9294 5.65056 0
      vertex 2.9294 5.65056 8
    endloop
  endfacet
  facet normal 0.95694 -0.290284 0
    outer loop
      vertex 2.9294 5.65056 0
      vertex 2.83266 5.33165 8
      vertex 2.83266 5.33165 0
    endloop
  endfacet
  facet normal -0.995185 0.0980178 0
    outer loop
      vertex 6.16733 4.66835 0
      vertex 6.2 5 8
      vertex 6.2 5 0
    endloop
  endfacet
  facet normal -0.995185 0.0980178 0
    outer loop
      vertex 6.2 5 8
      vertex 6.16733 4.66835 0
      vertex 6.16733 4.66835 8
    endloop
  endfacet
  facet normal -0.95694 -0.290284 0
    outer loop
      vertex 6.16733 5.33165 0
      vertex 6.07059 5.65056 8
      vertex 6.07059 5.65056 0
    endloop
  endfacet
  facet normal -0.95694 -0.290284 0
    outer loop
      vertex 6.07059 5.65056 8
      vertex 6.16733 5.33165 0
      vertex 6.16733 5.33165 8
    endloop
  endfacet
  facet normal -0.634394 -0.77301 0
    outer loop
      vertex 5.44447 6.4135 0
      vertex 5.70208 6.20208 8
      vertex 5.44447 6.4135 8
    endloop
  endfacet
  facet normal -0.634394 -0.77301 -0
    outer loop
      vertex 5.70208 6.20208 8
      vertex 5.44447 6.4135 0
      vertex 5.70208 6.20208 0
    endloop
  endfacet
  facet normal 0.0980178 -0.995185 0
    outer loop
      vertex 4.16835 6.66733 0
      vertex 4.5 6.7 8
      vertex 4.16835 6.66733 8
    endloop
  endfacet
  facet normal 0.0980178 -0.995185 0
    outer loop
      vertex 4.5 6.7 8
      vertex 4.16835 6.66733 0
      vertex 4.5 6.7 0
    endloop
  endfacet
  facet normal -0.471397 -0.881921 0
    outer loop
      vertex 5.15056 6.57059 0
      vertex 5.44447 6.4135 8
      vertex 5.15056 6.57059 8
    endloop
  endfacet
  facet normal -0.471397 -0.881921 -0
    outer loop
      vertex 5.44447 6.4135 8
      vertex 5.15056 6.57059 0
      vertex 5.44447 6.4135 0
    endloop
  endfacet
  facet normal 0.995185 0.0980178 0
    outer loop
      vertex 2.83266 4.66835 8
      vertex 2.8 5 0
      vertex 2.8 5 8
    endloop
  endfacet
  facet normal 0.995185 0.0980178 0
    outer loop
      vertex 2.8 5 0
      vertex 2.83266 4.66835 8
      vertex 2.83266 4.66835 0
    endloop
  endfacet
  facet normal 0.881921 -0.471397 0
    outer loop
      vertex 2.9294 5.65056 8
      vertex 3.0865 5.94447 0
      vertex 3.0865 5.94447 8
    endloop
  endfacet
  facet normal 0.881921 -0.471397 0
    outer loop
      vertex 3.0865 5.94447 0
      vertex 2.9294 5.65056 8
      vertex 2.9294 5.65056 0
    endloop
  endfacet
  facet normal 0.634394 -0.77301 0
    outer loop
      vertex 3.29792 6.20208 0
      vertex 3.55553 6.4135 8
      vertex 3.29792 6.20208 8
    endloop
  endfacet
  facet normal 0.634394 -0.77301 0
    outer loop
      vertex 3.55553 6.4135 8
      vertex 3.29792 6.20208 0
      vertex 3.55553 6.4135 0
    endloop
  endfacet
  facet normal 0.290284 -0.95694 0
    outer loop
      vertex 3.84944 6.57059 0
      vertex 4.16835 6.66733 8
      vertex 3.84944 6.57059 8
    endloop
  endfacet
  facet normal 0.290284 -0.95694 0
    outer loop
      vertex 4.16835 6.66733 8
      vertex 3.84944 6.57059 0
      vertex 4.16835 6.66733 0
    endloop
  endfacet
  facet normal 0.77301 -0.634394 0
    outer loop
      vertex 3.0865 5.94447 8
      vertex 3.29792 6.20208 0
      vertex 3.29792 6.20208 8
    endloop
  endfacet
  facet normal 0.77301 -0.634394 0
    outer loop
      vertex 3.29792 6.20208 0
      vertex 3.0865 5.94447 8
      vertex 3.0865 5.94447 0
    endloop
  endfacet
  facet normal -0.995185 -0.0980181 0
    outer loop
      vertex 6.2 5 0
      vertex 6.16733 5.33165 8
      vertex 6.16733 5.33165 0
    endloop
  endfacet
  facet normal -0.995185 -0.0980181 0
    outer loop
      vertex 6.16733 5.33165 8
      vertex 6.2 5 0
      vertex 6.2 5 8
    endloop
  endfacet
  facet normal 0.471397 0.881921 -0
    outer loop
      vertex 3.84944 3.4294 0
      vertex 3.55553 3.5865 8
      vertex 3.84944 3.4294 8
    endloop
  endfacet
  facet normal 0.471397 0.881921 0
    outer loop
      vertex 3.55553 3.5865 8
      vertex 3.84944 3.4294 0
      vertex 3.55553 3.5865 0
    endloop
  endfacet
  facet normal 0.77301 0.634394 0
    outer loop
      vertex 3.29792 3.79792 8
      vertex 3.0865 4.05553 0
      vertex 3.0865 4.05553 8
    endloop
  endfacet
  facet normal 0.77301 0.634394 0
    outer loop
      vertex 3.0865 4.05553 0
      vertex 3.29792 3.79792 8
      vertex 3.29792 3.79792 0
    endloop
  endfacet
  facet normal -0.634394 0.77301 0
    outer loop
      vertex 5.70208 3.79792 0
      vertex 5.44447 3.5865 8
      vertex 5.70208 3.79792 8
    endloop
  endfacet
  facet normal -0.634394 0.77301 0
    outer loop
      vertex 5.44447 3.5865 8
      vertex 5.70208 3.79792 0
      vertex 5.44447 3.5865 0
    endloop
  endfacet
  facet normal -0.0980181 -0.995185 0
    outer loop
      vertex 4.5 6.7 0
      vertex 4.83165 6.66733 8
      vertex 4.5 6.7 8
    endloop
  endfacet
  facet normal -0.0980181 -0.995185 -0
    outer loop
      vertex 4.83165 6.66733 8
      vertex 4.5 6.7 0
      vertex 4.83165 6.66733 0
    endloop
  endfacet
  facet normal 0.995185 -0.0980181 0
    outer loop
      vertex 2.8 5 8
      vertex 2.83266 5.33165 0
      vertex 2.83266 5.33165 8
    endloop
  endfacet
  facet normal 0.995185 -0.0980181 0
    outer loop
      vertex 2.83266 5.33165 0
      vertex 2.8 5 8
      vertex 2.8 5 0
    endloop
  endfacet
  facet normal -0.881921 0.471397 0
    outer loop
      vertex 5.9135 4.05553 0
      vertex 6.07059 4.34944 8
      vertex 6.07059 4.34944 0
    endloop
  endfacet
  facet normal -0.881921 0.471397 0
    outer loop
      vertex 6.07059 4.34944 8
      vertex 5.9135 4.05553 0
      vertex 5.9135 4.05553 8
    endloop
  endfacet
  facet normal 0.95694 0.290284 0
    outer loop
      vertex 2.9294 4.34944 8
      vertex 2.83266 4.66835 0
      vertex 2.83266 4.66835 8
    endloop
  endfacet
  facet normal 0.95694 0.290284 0
    outer loop
      vertex 2.83266 4.66835 0
      vertex 2.9294 4.34944 8
      vertex 2.9294 4.34944 0
    endloop
  endfacet
  facet normal 0.634394 0.77301 -0
    outer loop
      vertex 3.55553 3.5865 0
      vertex 3.29792 3.79792 8
      vertex 3.55553 3.5865 8
    endloop
  endfacet
  facet normal 0.634394 0.77301 0
    outer loop
      vertex 3.29792 3.79792 8
      vertex 3.55553 3.5865 0
      vertex 3.29792 3.79792 0
    endloop
  endfacet
  facet normal -0.290284 0.95694 0
    outer loop
      vertex 5.15056 3.4294 0
      vertex 4.83165 3.33266 8
      vertex 5.15056 3.4294 8
    endloop
  endfacet
  facet normal -0.290284 0.95694 0
    outer loop
      vertex 4.83165 3.33266 8
      vertex 5.15056 3.4294 0
      vertex 4.83165 3.33266 0
    endloop
  endfacet
  facet normal -0.471397 0.881921 0
    outer loop
      vertex 5.44447 3.5865 0
      vertex 5.15056 3.4294 8
      vertex 5.44447 3.5865 8
    endloop
  endfacet
  facet normal -0.471397 0.881921 0
    outer loop
      vertex 5.15056 3.4294 8
      vertex 5.44447 3.5865 0
      vertex 5.15056 3.4294 0
    endloop
  endfacet
  facet normal -0.95694 0.290284 0
    outer loop
      vertex 6.07059 4.34944 0
      vertex 6.16733 4.66835 8
      vertex 6.16733 4.66835 0
    endloop
  endfacet
  facet normal -0.95694 0.290284 0
    outer loop
      vertex 6.16733 4.66835 8
      vertex 6.07059 4.34944 0
      vertex 6.07059 4.34944 8
    endloop
  endfacet
  facet normal 0.290284 0.95694 -0
    outer loop
      vertex 4.16835 3.33266 0
      vertex 3.84944 3.4294 8
      vertex 4.16835 3.33266 8
    endloop
  endfacet
  facet normal 0.290284 0.95694 0
    outer loop
      vertex 3.84944 3.4294 8
      vertex 4.16835 3.33266 0
      vertex 3.84944 3.4294 0
    endloop
  endfacet
  facet normal -0.0980181 0.995185 0
    outer loop
      vertex 4.83165 3.33266 0
      vertex 4.5 3.3 8
      vertex 4.83165 3.33266 8
    endloop
  endfacet
  facet normal -0.0980181 0.995185 0
    outer loop
      vertex 4.5 3.3 8
      vertex 4.83165 3.33266 0
      vertex 4.5 3.3 0
    endloop
  endfacet
  facet normal 0.881921 0.471397 0
    outer loop
      vertex 3.0865 4.05553 8
      vertex 2.9294 4.34944 0
      vertex 2.9294 4.34944 8
    endloop
  endfacet
  facet normal 0.881921 0.471397 0
    outer loop
      vertex 2.9294 4.34944 0
      vertex 3.0865 4.05553 8
      vertex 3.0865 4.05553 0
    endloop
  endfacet
  facet normal -0.77301 0.634394 0
    outer loop
      vertex 5.70208 3.79792 0
      vertex 5.9135 4.05553 8
      vertex 5.9135 4.05553 0
    endloop
  endfacet
  facet normal -0.77301 0.634394 0
    outer loop
      vertex 5.9135 4.05553 8
      vertex 5.70208 3.79792 0
      vertex 5.70208 3.79792 8
    endloop
  endfacet
  facet normal 0.0980178 0.995185 -0
    outer loop
      vertex 4.5 3.3 0
      vertex 4.16835 3.33266 8
      vertex 4.5 3.3 8
    endloop
  endfacet
  facet normal 0.0980178 0.995185 0
    outer loop
      vertex 4.16835 3.33266 8
      vertex 4.5 3.3 0
      vertex 4.16835 3.33266 0
    endloop
  endfacet
  facet normal -0 0 1
    outer loop
      vertex 5.9135 5.94447 8
      vertex 9 5 8
      vertex 9 9.005 8
    endloop
  endfacet
  facet normal -0 -0 1
    outer loop
      vertex 6.16733 5.33165 8
      vertex 9 5 8
      vertex 6.07059 5.65056 8
    endloop
  endfacet
  facet normal 0 -0 1
    outer loop
      vertex 6.2 5 8
      vertex 9 5 8
      vertex 6.16733 5.33165 8
    endloop
  endfacet
  facet normal 0 0 1
    outer loop
      vertex 9 5 8
      vertex 6.2 5 8
      vertex 8.97833 4.55892 8
    endloop
  endfacet
  facet normal 0 0 1
    outer loop
      vertex 8.97833 4.55892 8
      vertex 6.16733 4.66835 8
      vertex 8.91353 4.12209 8
    endloop
  endfacet
  facet normal 0 0 1
    outer loop
      vertex 8.91353 4.12209 8
      vertex 6.16733 4.66835 8
      vertex 8.80623 3.69372 8
    endloop
  endfacet
  facet normal -0 0 1
    outer loop
      vertex 6.07059 4.34944 8
      vertex 8.80623 3.69372 8
      vertex 6.16733 4.66835 8
    endloop
  endfacet
  facet normal 0 0 1
    outer loop
      vertex 8.65746 3.27792 8
      vertex 6.07059 4.34944 8
      vertex 8.46865 2.87871 8
    endloop
  endfacet
  facet normal -0 0 1
    outer loop
      vertex 5.9135 4.05553 8
      vertex 8.46865 2.87871 8
      vertex 6.07059 4.34944 8
    endloop
  endfacet
  facet normal 0 0 1
    outer loop
      vertex 8.46865 2.87871 8
      vertex 5.9135 4.05553 8
      vertex 8.24161 2.49993 8
    endloop
  endfacet
  facet normal -0 0 1
    outer loop
      vertex 5.70208 3.79792 8
      vertex 7.97855 2.14523 8
      vertex 5.9135 4.05553 8
    endloop
  endfacet
  facet normal 0 0 1
    outer loop
      vertex 7.97855 2.14523 8
      vertex 5.70208 3.79792 8
      vertex 7.68198 1.81802 8
    endloop
  endfacet
  facet normal 0 0 1
    outer loop
      vertex 8.24161 2.49993 8
      vertex 5.9135 4.05553 8
      vertex 7.97855 2.14523 8
    endloop
  endfacet
  facet normal 0 0 1
    outer loop
      vertex 8.80623 3.69372 8
      vertex 6.07059 4.34944 8
      vertex 8.65746 3.27792 8
    endloop
  endfacet
  facet normal -0 0 1
    outer loop
      vertex 6.16733 4.66835 8
      vertex 8.97833 4.55892 8
      vertex 6.2 5 8
    endloop
  endfacet
  facet normal 0 0 1
    outer loop
      vertex 9 5 8
      vertex 5.9135 5.94447 8
      vertex 6.07059 5.65056 8
    endloop
  endfacet
  facet normal 0 0 1
    outer loop
      vertex 9 9.005 8
      vertex 5.70208 6.20208 8
      vertex 5.9135 5.94447 8
    endloop
  endfacet
  facet normal 0 0 1
    outer loop
      vertex 9 9.005 8
      vertex 5.44447 6.4135 8
      vertex 5.70208 6.20208 8
    endloop
  endfacet
  facet normal 0 0 1
    outer loop
      vertex 9 9.005 8
      vertex 5.15056 6.57059 8
      vertex 5.44447 6.4135 8
    endloop
  endfacet
  facet normal 0 0 1
    outer loop
      vertex 9 9.005 8
      vertex 4.83165 6.66733 8
      vertex 5.15056 6.57059 8
    endloop
  endfacet
  facet normal 0 0 1
    outer loop
      vertex 9 9.005 8
      vertex 4.5 6.7 8
      vertex 4.83165 6.66733 8
    endloop
  endfacet
  facet normal -0 0 1
    outer loop
      vertex 0 9.005 8
      vertex 4.5 6.7 8
      vertex 9 9.005 8
    endloop
  endfacet
  facet normal 0 0 1
    outer loop
      vertex 4.5 6.7 8
      vertex 0 9.005 8
      vertex 4.16835 6.66733 8
    endloop
  endfacet
  facet normal 0 0 1
    outer loop
      vertex 3.84944 3.4294 8
      vertex 2.37871 1.03135 8
      vertex 2.77792 0.842542 8
    endloop
  endfacet
  facet normal 0 0 1
    outer loop
      vertex 0 5 8
      vertex 2.8 5 8
      vertex 2.83266 5.33165 8
    endloop
  endfacet
  facet normal 0 0 1
    outer loop
      vertex 2.83266 4.66835 8
      vertex 1.99993 1.25839 8
      vertex 2.37871 1.03135 8
    endloop
  endfacet
  facet normal 0 0 1
    outer loop
      vertex 2.83266 4.66835 8
      vertex 1.64523 1.52145 8
      vertex 1.99993 1.25839 8
    endloop
  endfacet
  facet normal 0 0 1
    outer loop
      vertex 0 5 8
      vertex 2.83266 5.33165 8
      vertex 2.9294 5.65056 8
    endloop
  endfacet
  facet normal 0 0 1
    outer loop
      vertex 2.83266 4.66835 8
      vertex 1.31802 1.81802 8
      vertex 1.64523 1.52145 8
    endloop
  endfacet
  facet normal 0 0 1
    outer loop
      vertex 2.83266 4.66835 8
      vertex 1.02145 2.14523 8
      vertex 1.31802 1.81802 8
    endloop
  endfacet
  facet normal 0 0 1
    outer loop
      vertex 0 5 8
      vertex 2.9294 5.65056 8
      vertex 3.0865 5.94447 8
    endloop
  endfacet
  facet normal 0 0 1
    outer loop
      vertex 2.83266 4.66835 8
      vertex 0.758387 2.49993 8
      vertex 1.02145 2.14523 8
    endloop
  endfacet
  facet normal 0 0 1
    outer loop
      vertex 2.83266 4.66835 8
      vertex 0.531354 2.87871 8
      vertex 0.758387 2.49993 8
    endloop
  endfacet
  facet normal 0 0 1
    outer loop
      vertex 0 9.005 8
      vertex 3.0865 5.94447 8
      vertex 3.29792 6.20208 8
    endloop
  endfacet
  facet normal 0 0 1
    outer loop
      vertex 2.83266 4.66835 8
      vertex 0.342542 3.27792 8
      vertex 0.531354 2.87871 8
    endloop
  endfacet
  facet normal 0 0 1
    outer loop
      vertex 2.83266 4.66835 8
      vertex 0.193768 3.69372 8
      vertex 0.342542 3.27792 8
    endloop
  endfacet
  facet normal 0 0 1
    outer loop
      vertex 0 9.005 8
      vertex 3.29792 6.20208 8
      vertex 3.55553 6.4135 8
    endloop
  endfacet
  facet normal 0 0 1
    outer loop
      vertex 2.83266 4.66835 8
      vertex 0.0864658 4.12209 8
      vertex 0.193768 3.69372 8
    endloop
  endfacet
  facet normal 0 0 1
    outer loop
      vertex 2.83266 4.66835 8
      vertex 0.0216684 4.55892 8
      vertex 0.0864658 4.12209 8
    endloop
  endfacet
  facet normal 0 0 1
    outer loop
      vertex 0 9.005 8
      vertex 3.55553 6.4135 8
      vertex 3.84944 6.57059 8
    endloop
  endfacet
  facet normal 0 0 1
    outer loop
      vertex 4.16835 6.66733 8
      vertex 0 9.005 8
      vertex 3.84944 6.57059 8
    endloop
  endfacet
  facet normal 0 0 1
    outer loop
      vertex 3.0865 5.94447 8
      vertex 0 9.005 8
      vertex 0 5 8
    endloop
  endfacet
  facet normal 0 0 1
    outer loop
      vertex 2.8 5 8
      vertex 0 5 8
      vertex 0.0216684 4.55892 8
    endloop
  endfacet
  facet normal 0 0 1
    outer loop
      vertex 7.68198 1.81802 8
      vertex 5.70208 3.79792 8
      vertex 7.35477 1.52145 8
    endloop
  endfacet
  facet normal -0 0 1
    outer loop
      vertex 5.44447 3.5865 8
      vertex 7.35477 1.52145 8
      vertex 5.70208 3.79792 8
    endloop
  endfacet
  facet normal 0 0 1
    outer loop
      vertex 7.35477 1.52145 8
      vertex 5.44447 3.5865 8
      vertex 7.00007 1.25839 8
    endloop
  endfacet
  facet normal 0 0 1
    outer loop
      vertex 7.00007 1.25839 8
      vertex 5.44447 3.5865 8
      vertex 6.62128 1.03135 8
    endloop
  endfacet
  facet normal -0 0 1
    outer loop
      vertex 5.15056 3.4294 8
      vertex 6.62128 1.03135 8
      vertex 5.44447 3.5865 8
    endloop
  endfacet
  facet normal 0 0 1
    outer loop
      vertex 6.62128 1.03135 8
      vertex 5.15056 3.4294 8
      vertex 6.22207 0.842542 8
    endloop
  endfacet
  facet normal 0 0 1
    outer loop
      vertex 6.22207 0.842542 8
      vertex 5.15056 3.4294 8
      vertex 5.80628 0.693768 8
    endloop
  endfacet
  facet normal -0 0 1
    outer loop
      vertex 4.83165 3.33266 8
      vertex 5.80628 0.693768 8
      vertex 5.15056 3.4294 8
    endloop
  endfacet
  facet normal 0 0 1
    outer loop
      vertex 5.80628 0.693768 8
      vertex 4.83165 3.33266 8
      vertex 5.37791 0.586466 8
    endloop
  endfacet
  facet normal 0 0 1
    outer loop
      vertex 5.37791 0.586466 8
      vertex 4.83165 3.33266 8
      vertex 4.94108 0.521668 8
    endloop
  endfacet
  facet normal -0 0 1
    outer loop
      vertex 4.5 3.3 8
      vertex 4.94108 0.521668 8
      vertex 4.83165 3.33266 8
    endloop
  endfacet
  facet normal 0 0 1
    outer loop
      vertex 4.5 3.3 8
      vertex 4.5 0.5 8
      vertex 4.94108 0.521668 8
    endloop
  endfacet
  facet normal 0 0 1
    outer loop
      vertex 4.05892 0.521668 8
      vertex 4.5 3.3 8
      vertex 4.16835 3.33266 8
    endloop
  endfacet
  facet normal 0 0 1
    outer loop
      vertex 4.5 3.3 8
      vertex 4.05892 0.521668 8
      vertex 4.5 0.5 8
    endloop
  endfacet
  facet normal 0 0 1
    outer loop
      vertex 3.19372 0.693768 8
      vertex 4.16835 3.33266 8
      vertex 3.84944 3.4294 8
    endloop
  endfacet
  facet normal 0 0 1
    outer loop
      vertex 4.16835 3.33266 8
      vertex 3.62209 0.586466 8
      vertex 4.05892 0.521668 8
    endloop
  endfacet
  facet normal 0 0 1
    outer loop
      vertex 2.37871 1.03135 8
      vertex 3.84944 3.4294 8
      vertex 3.55553 3.5865 8
    endloop
  endfacet
  facet normal 0 0 1
    outer loop
      vertex 2.37871 1.03135 8
      vertex 3.55553 3.5865 8
      vertex 3.29792 3.79792 8
    endloop
  endfacet
  facet normal 0 0 1
    outer loop
      vertex 4.16835 3.33266 8
      vertex 3.19372 0.693768 8
      vertex 3.62209 0.586466 8
    endloop
  endfacet
  facet normal 0 0 1
    outer loop
      vertex 2.37871 1.03135 8
      vertex 3.29792 3.79792 8
      vertex 3.0865 4.05553 8
    endloop
  endfacet
  facet normal 0 0 1
    outer loop
      vertex 2.37871 1.03135 8
      vertex 3.0865 4.05553 8
      vertex 2.9294 4.34944 8
    endloop
  endfacet
  facet normal 0 0 1
    outer loop
      vertex 2.37871 1.03135 8
      vertex 2.9294 4.34944 8
      vertex 2.83266 4.66835 8
    endloop
  endfacet
  facet normal 0 0 1
    outer loop
      vertex 0.0216684 4.55892 8
      vertex 2.83266 4.66835 8
      vertex 2.8 5 8
    endloop
  endfacet
  facet normal 0 0 1
    outer loop
      vertex 3.84944 3.4294 8
      vertex 2.77792 0.842542 8
      vertex 3.19372 0.693768 8
    endloop
  endfacet
  facet normal 0 -1 0
    outer loop
      vertex 0 9.005 8
      vertex 9 9.005 9
      vertex 0 9.005 9
    endloop
  endfacet
  facet normal 0 -1 -0
    outer loop
      vertex 9 9.005 9
      vertex 0 9.005 8
      vertex 9 9.005 8
    endloop
  endfacet
  facet normal -0.995185 -0.0980179 0
    outer loop
      vertex 20.4 14.5 0
      vertex 20.3347 15.1633 2.21
      vertex 20.3347 15.1633 0
    endloop
  endfacet
  facet normal -0.995185 -0.0980179 0
    outer loop
      vertex 20.3347 15.1633 2.21
      vertex 20.4 14.5 0
      vertex 20.4 14.5 2.21
    endloop
  endfacet
  facet normal 0.995185 0.0980178 0
    outer loop
      vertex 13.6653 13.8367 2.21
      vertex 13.6 14.5 0
      vertex 13.6 14.5 2.21
    endloop
  endfacet
  facet normal 0.995185 0.0980178 0
    outer loop
      vertex 13.6 14.5 0
      vertex 13.6653 13.8367 2.21
      vertex 13.6653 13.8367 0
    endloop
  endfacet
  facet normal 0.0980178 -0.995185 0
    outer loop
      vertex 16.3367 17.8347 0
      vertex 17 17.9 2.21
      vertex 16.3367 17.8347 2.21
    endloop
  endfacet
  facet normal 0.0980178 -0.995185 0
    outer loop
      vertex 17 17.9 2.21
      vertex 16.3367 17.8347 0
      vertex 17 17.9 0
    endloop
  endfacet
  facet normal -0.0980178 0.995185 0
    outer loop
      vertex 17.6633 11.1653 0
      vertex 17 11.1 2.21
      vertex 17.6633 11.1653 2.21
    endloop
  endfacet
  facet normal -0.0980178 0.995185 0
    outer loop
      vertex 17 11.1 2.21
      vertex 17.6633 11.1653 0
      vertex 17 11.1 0
    endloop
  endfacet
  facet normal -0.634392 -0.773011 0
    outer loop
      vertex 18.8889 17.327 0
      vertex 19.4042 16.9042 2.21
      vertex 18.8889 17.327 2.21
    endloop
  endfacet
  facet normal -0.634392 -0.773011 -0
    outer loop
      vertex 19.4042 16.9042 2.21
      vertex 18.8889 17.327 0
      vertex 19.4042 16.9042 0
    endloop
  endfacet
  facet normal 0.773011 -0.634393 0
    outer loop
      vertex 14.173 16.3889 2.21
      vertex 14.5958 16.9042 0
      vertex 14.5958 16.9042 2.21
    endloop
  endfacet
  facet normal 0.773011 -0.634393 0
    outer loop
      vertex 14.5958 16.9042 0
      vertex 14.173 16.3889 2.21
      vertex 14.173 16.3889 0
    endloop
  endfacet
  facet normal 0.471397 -0.881921 0
    outer loop
      vertex 15.1111 17.327 0
      vertex 15.6989 17.6412 2.21
      vertex 15.1111 17.327 2.21
    endloop
  endfacet
  facet normal 0.471397 -0.881921 0
    outer loop
      vertex 15.6989 17.6412 2.21
      vertex 15.1111 17.327 0
      vertex 15.6989 17.6412 0
    endloop
  endfacet
  facet normal -0.881921 -0.471397 0
    outer loop
      vertex 20.1412 15.8011 0
      vertex 19.827 16.3889 2.21
      vertex 19.827 16.3889 0
    endloop
  endfacet
  facet normal -0.881921 -0.471397 0
    outer loop
      vertex 19.827 16.3889 2.21
      vertex 20.1412 15.8011 0
      vertex 20.1412 15.8011 2.21
    endloop
  endfacet
  facet normal -0.95694 -0.290284 0
    outer loop
      vertex 20.3347 15.1633 0
      vertex 20.1412 15.8011 2.21
      vertex 20.1412 15.8011 0
    endloop
  endfacet
  facet normal -0.95694 -0.290284 0
    outer loop
      vertex 20.1412 15.8011 2.21
      vertex 20.3347 15.1633 0
      vertex 20.3347 15.1633 2.21
    endloop
  endfacet
  facet normal -0.773011 -0.634392 0
    outer loop
      vertex 19.827 16.3889 0
      vertex 19.4042 16.9042 2.21
      vertex 19.4042 16.9042 0
    endloop
  endfacet
  facet normal -0.773011 -0.634392 0
    outer loop
      vertex 19.4042 16.9042 2.21
      vertex 19.827 16.3889 0
      vertex 19.827 16.3889 2.21
    endloop
  endfacet
  facet normal -0.290284 -0.95694 0
    outer loop
      vertex 17.6633 17.8347 0
      vertex 18.3011 17.6412 2.21
      vertex 17.6633 17.8347 2.21
    endloop
  endfacet
  facet normal -0.290284 -0.95694 -0
    outer loop
      vertex 18.3011 17.6412 2.21
      vertex 17.6633 17.8347 0
      vertex 18.3011 17.6412 0
    endloop
  endfacet
  facet normal -0.0980178 -0.995185 0
    outer loop
      vertex 17 17.9 0
      vertex 17.6633 17.8347 2.21
      vertex 17 17.9 2.21
    endloop
  endfacet
  facet normal -0.0980178 -0.995185 -0
    outer loop
      vertex 17.6633 17.8347 2.21
      vertex 17 17.9 0
      vertex 17.6633 17.8347 0
    endloop
  endfacet
  facet normal -0.471397 -0.881921 0
    outer loop
      vertex 18.3011 17.6412 0
      vertex 18.8889 17.327 2.21
      vertex 18.3011 17.6412 2.21
    endloop
  endfacet
  facet normal -0.471397 -0.881921 -0
    outer loop
      vertex 18.8889 17.327 2.21
      vertex 18.3011 17.6412 0
      vertex 18.8889 17.327 0
    endloop
  endfacet
  facet normal 0.95694 -0.290284 0
    outer loop
      vertex 13.6653 15.1633 2.21
      vertex 13.8588 15.8011 0
      vertex 13.8588 15.8011 2.21
    endloop
  endfacet
  facet normal 0.95694 -0.290284 0
    outer loop
      vertex 13.8588 15.8011 0
      vertex 13.6653 15.1633 2.21
      vertex 13.6653 15.1633 0
    endloop
  endfacet
  facet normal 0.881921 -0.471397 0
    outer loop
      vertex 13.8588 15.8011 2.21
      vertex 14.173 16.3889 0
      vertex 14.173 16.3889 2.21
    endloop
  endfacet
  facet normal 0.881921 -0.471397 0
    outer loop
      vertex 14.173 16.3889 0
      vertex 13.8588 15.8011 2.21
      vertex 13.8588 15.8011 0
    endloop
  endfacet
  facet normal 0.995185 -0.0980179 0
    outer loop
      vertex 13.6 14.5 2.21
      vertex 13.6653 15.1633 0
      vertex 13.6653 15.1633 2.21
    endloop
  endfacet
  facet normal 0.995185 -0.0980179 0
    outer loop
      vertex 13.6653 15.1633 0
      vertex 13.6 14.5 2.21
      vertex 13.6 14.5 0
    endloop
  endfacet
  facet normal 0.634392 -0.773011 0
    outer loop
      vertex 14.5958 16.9042 0
      vertex 15.1111 17.327 2.21
      vertex 14.5958 16.9042 2.21
    endloop
  endfacet
  facet normal 0.634392 -0.773011 0
    outer loop
      vertex 15.1111 17.327 2.21
      vertex 14.5958 16.9042 0
      vertex 15.1111 17.327 0
    endloop
  endfacet
  facet normal 0.290284 -0.95694 0
    outer loop
      vertex 15.6989 17.6412 0
      vertex 16.3367 17.8347 2.21
      vertex 15.6989 17.6412 2.21
    endloop
  endfacet
  facet normal 0.290284 -0.95694 0
    outer loop
      vertex 16.3367 17.8347 2.21
      vertex 15.6989 17.6412 0
      vertex 16.3367 17.8347 0
    endloop
  endfacet
  facet normal -0.995185 0.0980178 0
    outer loop
      vertex 20.3347 13.8367 0
      vertex 20.4 14.5 2.21
      vertex 20.4 14.5 0
    endloop
  endfacet
  facet normal -0.995185 0.0980178 0
    outer loop
      vertex 20.4 14.5 2.21
      vertex 20.3347 13.8367 0
      vertex 20.3347 13.8367 2.21
    endloop
  endfacet
  facet normal 0.773011 0.634393 0
    outer loop
      vertex 14.5958 12.0958 2.21
      vertex 14.173 12.6111 0
      vertex 14.173 12.6111 2.21
    endloop
  endfacet
  facet normal 0.773011 0.634393 0
    outer loop
      vertex 14.173 12.6111 0
      vertex 14.5958 12.0958 2.21
      vertex 14.5958 12.0958 0
    endloop
  endfacet
  facet normal -0.290284 0.95694 0
    outer loop
      vertex 18.3011 11.3588 0
      vertex 17.6633 11.1653 2.21
      vertex 18.3011 11.3588 2.21
    endloop
  endfacet
  facet normal -0.290284 0.95694 0
    outer loop
      vertex 17.6633 11.1653 2.21
      vertex 18.3011 11.3588 0
      vertex 17.6633 11.1653 0
    endloop
  endfacet
  facet normal -0.881921 0.471397 0
    outer loop
      vertex 19.827 12.6111 0
      vertex 20.1412 13.1989 2.21
      vertex 20.1412 13.1989 0
    endloop
  endfacet
  facet normal -0.881921 0.471397 0
    outer loop
      vertex 20.1412 13.1989 2.21
      vertex 19.827 12.6111 0
      vertex 19.827 12.6111 2.21
    endloop
  endfacet
  facet normal -0.634393 0.773011 0
    outer loop
      vertex 19.4042 12.0958 0
      vertex 18.8889 11.673 2.21
      vertex 19.4042 12.0958 2.21
    endloop
  endfacet
  facet normal -0.634393 0.773011 0
    outer loop
      vertex 18.8889 11.673 2.21
      vertex 19.4042 12.0958 0
      vertex 18.8889 11.673 0
    endloop
  endfacet
  facet normal -0.471397 0.881921 0
    outer loop
      vertex 18.8889 11.673 0
      vertex 18.3011 11.3588 2.21
      vertex 18.8889 11.673 2.21
    endloop
  endfacet
  facet normal -0.471397 0.881921 0
    outer loop
      vertex 18.3011 11.3588 2.21
      vertex 18.8889 11.673 0
      vertex 18.3011 11.3588 0
    endloop
  endfacet
  facet normal -0.95694 0.290284 0
    outer loop
      vertex 20.1412 13.1989 0
      vertex 20.3347 13.8367 2.21
      vertex 20.3347 13.8367 0
    endloop
  endfacet
  facet normal -0.95694 0.290284 0
    outer loop
      vertex 20.3347 13.8367 2.21
      vertex 20.1412 13.1989 0
      vertex 20.1412 13.1989 2.21
    endloop
  endfacet
  facet normal 0.0980178 0.995185 -0
    outer loop
      vertex 17 11.1 0
      vertex 16.3367 11.1653 2.21
      vertex 17 11.1 2.21
    endloop
  endfacet
  facet normal 0.0980178 0.995185 0
    outer loop
      vertex 16.3367 11.1653 2.21
      vertex 17 11.1 0
      vertex 16.3367 11.1653 0
    endloop
  endfacet
  facet normal 0.471397 0.881921 -0
    outer loop
      vertex 15.6989 11.3588 0
      vertex 15.1111 11.673 2.21
      vertex 15.6989 11.3588 2.21
    endloop
  endfacet
  facet normal 0.471397 0.881921 0
    outer loop
      vertex 15.1111 11.673 2.21
      vertex 15.6989 11.3588 0
      vertex 15.1111 11.673 0
    endloop
  endfacet
  facet normal 0.290284 0.95694 -0
    outer loop
      vertex 16.3367 11.1653 0
      vertex 15.6989 11.3588 2.21
      vertex 16.3367 11.1653 2.21
    endloop
  endfacet
  facet normal 0.290284 0.95694 0
    outer loop
      vertex 15.6989 11.3588 2.21
      vertex 16.3367 11.1653 0
      vertex 15.6989 11.3588 0
    endloop
  endfacet
  facet normal 0.634393 0.773011 -0
    outer loop
      vertex 15.1111 11.673 0
      vertex 14.5958 12.0958 2.21
      vertex 15.1111 11.673 2.21
    endloop
  endfacet
  facet normal 0.634393 0.773011 0
    outer loop
      vertex 14.5958 12.0958 2.21
      vertex 15.1111 11.673 0
      vertex 14.5958 12.0958 0
    endloop
  endfacet
  facet normal 0.881921 0.471397 0
    outer loop
      vertex 14.173 12.6111 2.21
      vertex 13.8588 13.1989 0
      vertex 13.8588 13.1989 2.21
    endloop
  endfacet
  facet normal 0.881921 0.471397 0
    outer loop
      vertex 13.8588 13.1989 0
      vertex 14.173 12.6111 2.21
      vertex 14.173 12.6111 0
    endloop
  endfacet
  facet normal 0.95694 0.290284 0
    outer loop
      vertex 13.8588 13.1989 2.21
      vertex 13.6653 13.8367 0
      vertex 13.6653 13.8367 2.21
    endloop
  endfacet
  facet normal 0.95694 0.290284 0
    outer loop
      vertex 13.6653 13.8367 0
      vertex 13.8588 13.1989 2.21
      vertex 13.8588 13.1989 0
    endloop
  endfacet
  facet normal -0.773011 0.634392 0
    outer loop
      vertex 19.4042 12.0958 0
      vertex 19.827 12.6111 2.21
      vertex 19.827 12.6111 0
    endloop
  endfacet
  facet normal -0.773011 0.634392 0
    outer loop
      vertex 19.827 12.6111 2.21
      vertex 19.4042 12.0958 0
      vertex 19.4042 12.0958 2.21
    endloop
  endfacet
  facet normal 0 0 1
    outer loop
      vertex 21.2 14.5 2.21
      vertex 20.3347 15.1633 2.21
      vertex 20.4 14.5 2.21
    endloop
  endfacet
  facet normal 0 0 1
    outer loop
      vertex 21.2 14.5 2.21
      vertex 20.1412 15.8011 2.21
      vertex 20.3347 15.1633 2.21
    endloop
  endfacet
  facet normal 0 0 1
    outer loop
      vertex 21.2 14.5 2.21
      vertex 19.827 16.3889 2.21
      vertex 20.1412 15.8011 2.21
    endloop
  endfacet
  facet normal 0 0 1
    outer loop
      vertex 19.1 18.1373 2.21
      vertex 19.827 16.3889 2.21
      vertex 21.2 14.5 2.21
    endloop
  endfacet
  facet normal 0 0 1
    outer loop
      vertex 19.1 18.1373 2.21
      vertex 19.4042 16.9042 2.21
      vertex 19.827 16.3889 2.21
    endloop
  endfacet
  facet normal 0 0 1
    outer loop
      vertex 19.1 18.1373 2.21
      vertex 18.8889 17.327 2.21
      vertex 19.4042 16.9042 2.21
    endloop
  endfacet
  facet normal 0 0 1
    outer loop
      vertex 19.1 18.1373 2.21
      vertex 18.3011 17.6412 2.21
      vertex 18.8889 17.327 2.21
    endloop
  endfacet
  facet normal 0 0 1
    outer loop
      vertex 19.1 18.1373 2.21
      vertex 17.6633 17.8347 2.21
      vertex 18.3011 17.6412 2.21
    endloop
  endfacet
  facet normal 0 0 1
    outer loop
      vertex 19.1 18.1373 2.21
      vertex 17 17.9 2.21
      vertex 17.6633 17.8347 2.21
    endloop
  endfacet
  facet normal -0 0 1
    outer loop
      vertex 14.9 18.1373 2.21
      vertex 17 17.9 2.21
      vertex 19.1 18.1373 2.21
    endloop
  endfacet
  facet normal 0 0 1
    outer loop
      vertex 17 17.9 2.21
      vertex 14.9 18.1373 2.21
      vertex 16.3367 17.8347 2.21
    endloop
  endfacet
  facet normal 0 0 1
    outer loop
      vertex 14.9 18.1373 2.21
      vertex 15.6989 17.6412 2.21
      vertex 16.3367 17.8347 2.21
    endloop
  endfacet
  facet normal 0 0 1
    outer loop
      vertex 14.9 18.1373 2.21
      vertex 15.1111 17.327 2.21
      vertex 15.6989 17.6412 2.21
    endloop
  endfacet
  facet normal 0 0 1
    outer loop
      vertex 14.9 18.1373 2.21
      vertex 14.5958 16.9042 2.21
      vertex 15.1111 17.327 2.21
    endloop
  endfacet
  facet normal 0 0 1
    outer loop
      vertex 14.9 18.1373 2.21
      vertex 14.173 16.3889 2.21
      vertex 14.5958 16.9042 2.21
    endloop
  endfacet
  facet normal 0 0 1
    outer loop
      vertex 12.8 14.5 2.21
      vertex 14.173 16.3889 2.21
      vertex 14.9 18.1373 2.21
    endloop
  endfacet
  facet normal 0 0 1
    outer loop
      vertex 13.6653 15.1633 2.21
      vertex 12.8 14.5 2.21
      vertex 13.6 14.5 2.21
    endloop
  endfacet
  facet normal 0 0 1
    outer loop
      vertex 13.8588 15.8011 2.21
      vertex 12.8 14.5 2.21
      vertex 13.6653 15.1633 2.21
    endloop
  endfacet
  facet normal 0 0 1
    outer loop
      vertex 14.173 16.3889 2.21
      vertex 12.8 14.5 2.21
      vertex 13.8588 15.8011 2.21
    endloop
  endfacet
  facet normal 0 0 1
    outer loop
      vertex 20.3347 13.8367 2.21
      vertex 21.2 14.5 2.21
      vertex 20.4 14.5 2.21
    endloop
  endfacet
  facet normal 0 0 1
    outer loop
      vertex 20.1412 13.1989 2.21
      vertex 21.2 14.5 2.21
      vertex 20.3347 13.8367 2.21
    endloop
  endfacet
  facet normal 0 0 1
    outer loop
      vertex 19.827 12.6111 2.21
      vertex 21.2 14.5 2.21
      vertex 20.1412 13.1989 2.21
    endloop
  endfacet
  facet normal -0 0 1
    outer loop
      vertex 19.827 12.6111 2.21
      vertex 19.1 10.8627 2.21
      vertex 21.2 14.5 2.21
    endloop
  endfacet
  facet normal -0 0 1
    outer loop
      vertex 19.4042 12.0958 2.21
      vertex 19.1 10.8627 2.21
      vertex 19.827 12.6111 2.21
    endloop
  endfacet
  facet normal -0 0 1
    outer loop
      vertex 18.8889 11.673 2.21
      vertex 19.1 10.8627 2.21
      vertex 19.4042 12.0958 2.21
    endloop
  endfacet
  facet normal -0 0 1
    outer loop
      vertex 18.3011 11.3588 2.21
      vertex 19.1 10.8627 2.21
      vertex 18.8889 11.673 2.21
    endloop
  endfacet
  facet normal -0 0 1
    outer loop
      vertex 17.6633 11.1653 2.21
      vertex 19.1 10.8627 2.21
      vertex 18.3011 11.3588 2.21
    endloop
  endfacet
  facet normal -0 0 1
    outer loop
      vertex 17 11.1 2.21
      vertex 19.1 10.8627 2.21
      vertex 17.6633 11.1653 2.21
    endloop
  endfacet
  facet normal 0 0 1
    outer loop
      vertex 14.9 10.8627 2.21
      vertex 17 11.1 2.21
      vertex 16.3367 11.1653 2.21
    endloop
  endfacet
  facet normal 0 0 1
    outer loop
      vertex 17 11.1 2.21
      vertex 14.9 10.8627 2.21
      vertex 19.1 10.8627 2.21
    endloop
  endfacet
  facet normal 0 0 1
    outer loop
      vertex 15.6989 11.3588 2.21
      vertex 14.9 10.8627 2.21
      vertex 16.3367 11.1653 2.21
    endloop
  endfacet
  facet normal 0 0 1
    outer loop
      vertex 15.1111 11.673 2.21
      vertex 14.9 10.8627 2.21
      vertex 15.6989 11.3588 2.21
    endloop
  endfacet
  facet normal 0 0 1
    outer loop
      vertex 14.5958 12.0958 2.21
      vertex 14.9 10.8627 2.21
      vertex 15.1111 11.673 2.21
    endloop
  endfacet
  facet normal 0 0 1
    outer loop
      vertex 14.173 12.6111 2.21
      vertex 14.9 10.8627 2.21
      vertex 14.5958 12.0958 2.21
    endloop
  endfacet
  facet normal 0 0 1
    outer loop
      vertex 12.8 14.5 2.21
      vertex 14.173 12.6111 2.21
      vertex 13.8588 13.1989 2.21
    endloop
  endfacet
  facet normal 0 0 1
    outer loop
      vertex 14.173 12.6111 2.21
      vertex 12.8 14.5 2.21
      vertex 14.9 10.8627 2.21
    endloop
  endfacet
  facet normal 0 0 1
    outer loop
      vertex 13.6653 13.8367 2.21
      vertex 12.8 14.5 2.21
      vertex 13.8588 13.1989 2.21
    endloop
  endfacet
  facet normal -0 0 1
    outer loop
      vertex 12.8 14.5 2.21
      vertex 13.6653 13.8367 2.21
      vertex 13.6 14.5 2.21
    endloop
  endfacet
  facet normal -0.866025 -0.5 0
    outer loop
      vertex 21.2 14.5 2.21
      vertex 19.1 18.1373 3
      vertex 19.1 18.1373 2.21
    endloop
  endfacet
  facet normal -0.866025 -0.5 0
    outer loop
      vertex 19.1 18.1373 3
      vertex 21.2 14.5 2.21
      vertex 21.2 14.5 3
    endloop
  endfacet
  facet normal 0 1 -0
    outer loop
      vertex 19.1 10.8627 2.21
      vertex 14.9 10.8627 3
      vertex 19.1 10.8627 3
    endloop
  endfacet
  facet normal 0 1 0
    outer loop
      vertex 14.9 10.8627 3
      vertex 19.1 10.8627 2.21
      vertex 14.9 10.8627 2.21
    endloop
  endfacet
  facet normal 0.866025 -0.5 0
    outer loop
      vertex 12.8 14.5 3
      vertex 14.9 18.1373 2.21
      vertex 14.9 18.1373 3
    endloop
  endfacet
  facet normal 0.866025 -0.5 0
    outer loop
      vertex 14.9 18.1373 2.21
      vertex 12.8 14.5 3
      vertex 12.8 14.5 2.21
    endloop
  endfacet
  facet normal 0 -1 0
    outer loop
      vertex 14.9 18.1373 2.21
      vertex 19.1 18.1373 3
      vertex 14.9 18.1373 3
    endloop
  endfacet
  facet normal 0 -1 -0
    outer loop
      vertex 19.1 18.1373 3
      vertex 14.9 18.1373 2.21
      vertex 19.1 18.1373 2.21
    endloop
  endfacet
  facet normal 0.866025 0.5 0
    outer loop
      vertex 14.9 10.8627 3
      vertex 12.8 14.5 2.21
      vertex 12.8 14.5 3
    endloop
  endfacet
  facet normal 0.866025 0.5 0
    outer loop
      vertex 12.8 14.5 2.21
      vertex 14.9 10.8627 3
      vertex 14.9 10.8627 2.21
    endloop
  endfacet
  facet normal -0.866025 0.5 0
    outer loop
      vertex 19.1 10.8627 2.21
      vertex 21.2 14.5 3
      vertex 21.2 14.5 2.21
    endloop
  endfacet
  facet normal -0.866025 0.5 0
    outer loop
      vertex 21.2 14.5 3
      vertex 19.1 10.8627 2.21
      vertex 19.1 10.8627 3
    endloop
  endfacet
  facet normal -0 0.5 0.866025
    outer loop
      vertex 0 20 3
      vertex 9 9.60769 9
      vertex 9 20 3
    endloop
  endfacet
  facet normal 0 0.5 0.866025
    outer loop
      vertex 9 9.60769 9
      vertex 0 20 3
      vertex 0 9.60769 9
    endloop
  endfacet
endsolid OpenSCAD_Model
